SplineFontDB: 3.0
FontName: Besley-it-Bold
FullName: Besley* Bold
FamilyName: Besley*
Weight: Bold
Copyright: Copyright (c) 2017, Owen Earl,,, (EwonRael@yahoo.com)
Version: 001.000
ItalicAngle: 0
UnderlinePosition: -100
UnderlineWidth: 50
Ascent: 800
Descent: 200
InvalidEm: 0
LayerCount: 2
Layer: 0 0 "Back" 1
Layer: 1 0 "Fore" 0
XUID: [1021 31 -699969567 16487490]
FSType: 0
OS2Version: 0
OS2_WeightWidthSlopeOnly: 0
OS2_UseTypoMetrics: 1
CreationTime: 1460762150
ModificationTime: 1496097533
PfmFamily: 17
TTFWeight: 700
TTFWidth: 5
LineGap: 90
VLineGap: 0
OS2TypoAscent: 800
OS2TypoAOffset: 0
OS2TypoDescent: -200
OS2TypoDOffset: 0
OS2TypoLinegap: 90
OS2WinAscent: 1310
OS2WinAOffset: 0
OS2WinDescent: 830
OS2WinDOffset: 0
HheadAscent: 1310
HheadAOffset: 0
HheadDescent: -830
HheadDOffset: 0
OS2CapHeight: 750
OS2XHeight: 520
OS2FamilyClass: 1024
OS2Vendor: 'PfEd'
OS2UnicodeRanges: 00000001.00000000.00000000.00000000
Lookup: 5 0 0 "'calt' Contextual Alternates lookup 1" { "'calt' Contextual Alternates lookup 1-1"  } ['calt' ('DFLT' <'dflt' > 'grek' <'dflt' > 'latn' <'dflt' > ) ]
Lookup: 1 0 0 "'ss01' Style Set 1 lookup 2" { "'ss01' Style Set 1 lookup 2-1"  } ['ss01' ('DFLT' <'dflt' > 'grek' <'dflt' > 'latn' <'dflt' > ) ]
Lookup: 4 0 1 "'liga' Standard Ligatures lookup 0" { "Not your mama's contextual ligatures"  } ['liga' ('DFLT' <'dflt' > 'grek' <'dflt' > 'latn' <'dflt' > ) ]
Lookup: 258 0 0 "Kern like there's no tomorrow" { "Get it right" [150,0,5] } ['kern' ('DFLT' <'dflt' > 'grek' <'dflt' > 'latn' <'dflt' > ) ]
MarkAttachClasses: 1
DEI: 91125
KernClass2: 18 15 "Get it right"
 3 A L
 7 D G O Q
 5 F P Y
 3 K X
 1 T
 5 U J C
 3 V W
 3 u z
 9 b c e o p
 5 h n m
 3 k x
 11 r y v w g q
 6 period
 1 a
 27 H M I N l d uniFB02 uniFB04
 1 R
 68 quotedbl quotesingle quoteleft quoteright quotedblleft quotedblright
 3 A J
 7 C G O Q
 1 T
 5 V W Y
 1 X
 11 a m n r z s
 11 d e g o q c
 1 u
 5 v w y
 1 x
 12 period comma
 5 t p j
 37 B D E F H I K M N P R b h k l uniFFFD
 1 U

StartChar: ampersand
Encoding: 38 38 0
Width: 870
Flags: HMW
LayerCount: 2
Fore
SplineSet
603 460 m 2
 783 460 l 2
 812.301395868 460 815 462.309380861 815 432 c 2
 815 392 l 2
 815 367.053525308 816.780763635 365 791 365 c 2
 769 365 l 2
 735.418417011 365 737.787701114 361.489621304 730.43045234 336.000006909 c 0
 715.264967714 283.45830727 691.313805619 233.264226823 660.303215083 188.000005851 c 0
 643.481113536 163.445835535 631.650503794 159.633199831 650.012244898 134 c 2
 665.771428571 112 l 2
 676.23937756 97.3866239185 678.822961849 95 705 95 c 2
 779 95 l 2
 807.310606376 95 810 97.2925011159 810 68 c 2
 810 38 l 2
 810 -0.396945081135 809.464131502 0 771 0 c 2
 591 0 l 2
 562.621161953 0 547.695239994 -2.36657435044 535.971428571 14 c 2
 524.510204082 30 l 2
 510.914983832 48.9790824001 508.596179599 42.2461609255 489.000007855 31.6062553832 c 0
 428.824365925 -1.06661329894 361.333640524 -20 290 -20 c 0
 127 -20 1 57 1 200 c 0
 1 327.936414323 90.7208292115 378.997063921 190.999996742 415.859409045 c 0
 235.614098473 432.259429666 238.267649547 429.597868154 212.191836735 466 c 2
 195 490 l 2
 167.515220162 528.369065871 149 568 149 603 c 0
 149 693 244 770 400 770 c 0
 547 770 626 705 626 625 c 0
 626 534.420132712 564.037328547 488.709786131 486.883406949 454 c 0
 452.089389078 438.346966506 429.337530433 442.064416204 453.73877551 408 c 6
 559.755102041 260 l 2
 583.488366018 226.868093023 584.946307545 229.806082654 604.72404085 265.999995749 c 0
 615.585530458 285.876884819 624.765476163 306.672830131 632.092625579 327.9999954 c 0
 641.738313478 356.075740588 650.776902695 365 611 365 c 2
 581 365 l 2
 558.633040739 365 565 377.741061589 565 398 c 2
 565 432 l 2
 565 465.016824869 571.839300367 460 603 460 c 2
239.059599544 334 m 4
 209.579777587 305.746864286 191 269.600592993 191 220 c 0
 191 138 251 85 325 85 c 0
 358.038813908 85 389.527316724 90.6964919232 418.999992555 101.035219192 c 0
 474.284813573 120.428595277 449.804192108 134.290444065 422.791836735 172 c 2
 316.775510204 320 l 2
 286.614686413 362.104853725 279.969492383 373.207589385 239.059599544 334 c 4
462 615 m 0
 462 652 444 700 399 700 c 0
 352 700 327 668 327 625 c 0
 327 598.475556608 341.179888837 571.442779543 366.898075162 532 c 0
 389.068214485 497.998694205 396.4082512 490.842974761 427.353180844 524 c 4
 448.994820848 547.188690753 462 576.369036248 462 615 c 0
EndSplineSet
EndChar

StartChar: period
Encoding: 46 46 1
Width: 280
Flags: HMW
LayerCount: 2
Fore
SplineSet
40 80 m 4
 40 135 85 180 140 180 c 4
 195 180 240 135 240 80 c 4
 240 25 195 -20 140 -20 c 4
 85 -20 40 25 40 80 c 4
EndSplineSet
EndChar

StartChar: zero
Encoding: 48 48 2
Width: 530
Flags: HMW
LayerCount: 2
Fore
SplineSet
25 280 m 0
 25 473 102 580 265 580 c 0
 438 580 505 473 505 280 c 0
 505 87 418 -20 265 -20 c 0
 102 -20 25 87 25 280 c 0
210 280 m 0
 210 128 211 55 265 55 c 0
 319 55 320 128 320 280 c 0
 320 432 319 505 265 505 c 0
 211 505 210 432 210 280 c 0
EndSplineSet
EndChar

StartChar: one
Encoding: 49 49 3
Width: 530
VWidth: 1155
Flags: HMW
LayerCount: 2
Fore
SplineSet
475 0 m 6
 79 0 l 2
 50.2457754113 0 45 -3.99390887109 45 26 c 2
 45 72 l 2
 45 100.935557686 46.0922649295 100 75 100 c 2
 175 100 l 2
 208.130796202 100 205 103.852495808 205 136 c 2
 205 330 l 2
 205 367.779281605 210.439921995 375 171 375 c 2
 91 375 l 2
 64.6719531636 375 62 372.742216266 62 400 c 2
 62 448 l 2
 62 471.360568011 74.3353541888 464.876926355 94.9999844267 465.19161308 c 0
 188.897862717 466.621516034 261.210317182 478.400247214 306.999992688 572.119456068 c 0
 313.444742881 585.310134592 311.97971142 590 333 590 c 2
 357 590 l 2
 380.443636237 590 380 589.460237726 380 566 c 2
 380 144 l 2
 380 119.388398453 371.358464932 100 399 100 c 2
 471 100 l 2
 499.362263185 100 500 100.520650841 500 72 c 2
 500 22 l 2
 500 -1.66048419446 498.035889496 0 475 0 c 6
EndSplineSet
EndChar

StartChar: two
Encoding: 50 50 4
Width: 530
VWidth: 1155
Flags: HMW
LayerCount: 2
Fore
SplineSet
509.555429138 155.999877192 m 0
 503.891153419 25.0470582185 444.593615808 -40 360 -40 c 0
 263 -40 248 25 175 25 c 0
 146.302413073 25 127.893095869 17.6512359123 116 2.95370773685 c 0
 106.003900131 -9.39950635395 110.352724701 -20 86 -20 c 2
 39 -20 l 2
 23.8927894931 -20 24.7345571077 -18.4169014474 25.3168447847 -4 c 0
 30.7756237973 131.154292558 106.25761984 185.214876067 212 249 c 0
 284.8359375 292.935546875 307 356 307 420 c 0
 307 484 281 518 222 518 c 0
 188 518 150 499 150 477 c 0
 150 459 232 464 232 388 c 0
 232 331 182 290 135 290 c 0
 86 290 31 328 31 396 c 0
 31 508 140 580 262 580 c 0
 403 580 498 520 498 410 c 0
 498 330 430.857421875 254.379882812 247 195 c 0
 209.94490525 183.032216473 174.124023438 167.637695312 151 144.69140625 c 4
 115.844726562 109.806640625 124.206054688 114.48828125 164 132.75390625 c 0
 180.926757812 140.5234375 199.597101701 147.000000049 220 147 c 0
 300 147 300 103 366 103 c 0
 404.689071384 103 436.092259479 120.809936928 441.999999773 162.256871427 c 0
 444.034863325 176.532863968 442.578611642 177 459 177 c 2
 489 177 l 2
 509.92618258 177 510.448285388 176.641888393 509.555429138 155.999877192 c 0
EndSplineSet
EndChar

StartChar: three
Encoding: 51 51 5
Width: 530
VWidth: 1155
Flags: HMW
LayerCount: 2
Fore
SplineSet
15 -1 m 0
 15 62 60 105 109 105 c 0
 156 105 196 84 196 27 c 0
 196 -29 144 -31 144 -54 c 0
 144 -81 172 -98 226 -98 c 0
 295 -98 324 -34 324 40 c 0
 324 106.611586527 309.414926539 179.705427926 227 193.637275354 c 0
 199.25088529 198.328129895 197 194.056046706 197 227 c 2
 197 247 l 2
 197 281.202035896 205.670216789 272.820269487 232 278.175942879 c 0
 297.994543967 291.5997231 304 345.549179546 304 401 c 0
 304 485 285 518 226 518 c 0
 192 518 164 500 164 478 c 0
 164 455 206 450 206 404 c 0
 206 347 171 316 124 316 c 0
 75 316 35 354 35 412 c 0
 35 494 124 580 256 580 c 0
 377 580 485 521 485 401 c 0
 485 334.391241684 448.556640625 277.650390625 369 255.225585938 c 0
 327.952148438 243.655273438 325.931640625 237.225585938 366.897460938 219 c 0
 457.048828125 178.892578125 505.000000003 115.193957456 505 40 c 0
 505 -70 397 -170 236 -170 c 0
 74 -170 15 -93 15 -1 c 0
EndSplineSet
EndChar

StartChar: four
Encoding: 52 52 6
Width: 530
VWidth: 1155
Flags: HMW
LayerCount: 2
Fore
SplineSet
515 -89 m 6
 515 -123 l 2
 515 -150.937774849 513.90653623 -150 486 -150 c 2
 212 -150 l 2
 179.074006848 -150 180 -148.911792401 180 -116 c 2
 180 -90 l 2
 180 -56.8692037983 183.852495808 -60 216 -60 c 2
 243 -60 l 2
 268.396308592 -60 265 -55.4905093268 265 -31 c 2
 265 29 l 2
 265 58.4889311001 260.510204001 55 232 55 c 2
 54 55 l 2
 29.593189969 55 25 51.5273128062 25 77 c 2
 25 106 l 2
 25 129.524957712 30.3576144671 138.523983535 37.9260384214 154 c 0
 101.045373009 283.067275727 232.806984875 408.40060906 252.512416657 530 c 0
 257.390692797 560.103141816 254.569347961 560 289 560 c 2
 394 560 l 2
 421.221343303 560 424.941006568 560.671128184 421.172008734 534 c 0
 400.969228636 391.036018215 218.494474564 295.30747091 133.702785838 179 c 0
 117.847419439 157.251434852 99.9457941988 145 144 145 c 2
 232 145 l 2
 268.1765107 145 265 148.863552995 265 184 c 0
 265 228.449954174 274.32272515 223.009170368 301.999998944 243.005626093 c 0
 330.013113128 263.244721956 362.177013807 292.480832072 381.785998049 333 c 0
 391.381894288 352.828550337 385.857232456 370 417 370 c 0
 446.155810817 370 440 360.219022683 440 333 c 2
 440 168 l 2
 440 147.630900027 437.857215165 145 459 145 c 2
 493 145 l 2
 513.75491103 145 510 139.493629943 510 120 c 2
 510 84 l 2
 510 59.593189969 513.472687194 55 488 55 c 2
 461 55 l 2
 440.070878893 55 440 54.9998206451 440 34 c 2
 440 -20 l 2
 440 -50.2092565847 433.548480204 -60 466 -60 c 2
 489 -60 l 2
 516.706078965 -60 515 -61.9947130877 515 -89 c 6
EndSplineSet
EndChar

StartChar: five
Encoding: 53 53 7
Width: 530
VWidth: 1155
Flags: HMW
LayerCount: 2
Fore
SplineSet
25 -1 m 0
 25 57 65 110 124 110 c 0
 181 110 207 74 207 27 c 0
 207 -31 159 -34 159 -57 c 0
 159 -75 172 -93 226 -93 c 0
 285 -93 324 -44 324 60 c 0
 324 194 305 241 236 241 c 0
 207.678115936 241 186.297316713 234.926550764 165 222.208185431 c 0
 147.179409263 211.566056825 139.476127753 197 106 197 c 2
 63 197 l 2
 31.9816827638 197 44.24830636 216.699446202 47.0217391304 241 c 2
 80.9184782609 538 l 2
 84.5027223796 569.404805612 91.6175724206 565 125 565 c 2
 227 565 l 0
 332.148462892 565 349.572139863 558.528499399 375 587.657465504 c 0
 385.36174943 599.52740054 386.775497251 607 413 607 c 2
 442 607 l 2
 468.035537048 607 464.789916264 603.638660226 463.3125 580 c 2
 458 495 l 2
 452.37309611 413.007971882 422 395 185 395 c 2
 172 395 l 2
 149.374157116 395 149.517747388 394.298358068 147.201086957 374 c 2
 140.35326087 314 l 2
 135.553961118 271.948992651 144.202742946 291.250845886 170 302.504154406 c 4
 196.188836218 313.92827803 227.672620587 320 268 320 c 0
 449 320 505 220 505 80 c 0
 505 -70 397 -165 236 -165 c 0
 104 -165 25 -83 25 -1 c 0
EndSplineSet
EndChar

StartChar: six
Encoding: 54 54 8
Width: 530
VWidth: 1155
Flags: HMW
LayerCount: 2
Fore
SplineSet
200 260 m 0
 200 156 200 50 269 50 c 0
 328 50 330 146 330 230 c 0
 330 344 323 396 274 396 c 0
 221 396 200 340 200 260 c 0
510 230 m 0
 510 110 420 -20 269 -20 c 0
 98 -20 20 110 20 350 c 0
 20 550 123 730 294 730 c 0
 406 730 490 663 490 581 c 0
 490 513 445 485 396 485 c 0
 349 485 309 516 309 573 c 0
 309 619 348 628 348 641 c 0
 348 654 333 668 294 668 c 0
 223.561789935 668 205.739345647 571.53776274 201.369121305 450.000004676 c 0
 199.823877962 407.026144124 208.060555093 434.393426752 227 446.825090078 c 4
 244.674256316 458.426296191 267.251512084 465 296 465 c 0
 407 465 510 380 510 230 c 0
EndSplineSet
EndChar

StartChar: seven
Encoding: 55 55 9
Width: 540
VWidth: 1155
Flags: HMW
LayerCount: 2
Fore
SplineSet
31.2427387936 387.999991232 m 0
 40.3228182042 512.643442599 98.3897590628 590 180 590 c 0
 277 590 302 525 375 525 c 0
 409.694648358 525 436.512494294 535.741094212 449.999998979 557.223282636 c 0
 455.135298557 565.402517843 452.880427044 570 467 570 c 2
 497 570 l 2
 512.358754032 570 515.216967904 572.471865645 513.023424069 558.00000257 c 0
 502.198719615 486.584224051 403.780172031 348.55646773 338 218 c 0
 300.8359375 144.239257812 299 110 299 86 c 0
 299 13 352 14 352 -62 c 0
 352 -119 308 -160 244 -160 c 0
 186 -160 139 -113 139 -34 c 0
 139 45 179.100585938 123.419921875 249 231 c 0
 276.435006949 273.224089437 310.719233 322.206234901 343.445775201 369.999996629 c 0
 357.538803594 390.581420628 364.02734375 396.858398438 336 387.838867188 c 4
 327.608069037 385.138244387 318.694748542 383 310 383 c 0
 230 383 230 427 164 427 c 0
 131.182270522 427 109.431638932 414.185465604 100.970853237 385 c 0
 95.6072365403 366.498213493 104.422388595 353 78 353 c 2
 50 353 l 2
 23.5036331219 353 29.5708668842 365.049984343 31.2427387936 387.999991232 c 0
EndSplineSet
EndChar

StartChar: eight
Encoding: 56 56 10
Width: 530
VWidth: 1155
Flags: HMW
LayerCount: 2
Fore
SplineSet
205 190 m 0
 205 106 226 40 265 40 c 0
 304 40 325 106 325 190 c 0
 325 274 304 338 265 338 c 0
 226 338 205 274 205 190 c 0
50 530 m 0
 50 640 134 730 265 730 c 0
 396 730 480 640 480 530 c 0
 480 461.752236383 433.59375 411.2578125 377.44921875 382 c 0
 353.918945312 369.73828125 356.502929688 360.528320312 381.041015625 350 c 0
 450.01171875 320.407226562 500.000000002 259.05791096 500 180 c 0
 500 60 426 -20 265 -20 c 0
 104 -20 30 60 30 180 c 0
 30 257.907078806 79.2021484375 317.736328125 146 348.610351562 c 4
 172.340820312 360.78515625 176.989257812 368.669921875 150.62109375 383 c 4
 95.7880859375 412.799804688 50.0000000051 462.534534404 50 530 c 0
215 530 m 0
 215 456 226 395 265 395 c 0
 304 395 315 456 315 530 c 0
 315 604 304 665 265 665 c 0
 226 665 215 604 215 530 c 0
EndSplineSet
EndChar

StartChar: A
Encoding: 65 65 12
Width: 980
Flags: HMW
LayerCount: 2
Fore
SplineSet
432.83984375 560 m 4
 426.930664062 536.979492188 418.1171875 517.720703125 403.362304688 482 c 2
 341.966013072 334 l 2
 325.548921388 294.256091335 324.369621953 295 380 295 c 2
 502 295 l 2
 559.355807872 295 538.661818829 311.292465722 525.532846715 348 c 2
 471.883211679 498 l 2
 464.33905874 519.092835767 459.717785256 535.802220005 452.55859375 562 c 0
 446 586 439 584 432.83984375 560 c 4
306 0 m 2
 64 0 l 2
 33.0993093108 0 20 -7.89669648394 20 26 c 2
 20 76 l 2
 20 102.925399612 18.1881011197 105 46 105 c 2
 78 105 l 2
 133.875430559 105 130.539063513 118.596268672 146.478431373 156 c 2
 394.494117647 738 l 2
 405.774427418 764.470665567 409.348865809 765 448 765 c 2
 526 765 l 2
 574.505985943 765 570.698449827 750.707166827 583.738562092 718 c 2
 811.790849673 146 l 2
 825.465521327 111.701233392 824.234721832 105 874 105 c 2
 932 105 l 2
 957.936052402 105 960 106.79644627 960 80 c 2
 960 36 l 2
 960 3.95428299422 963.245145394 0 930 0 c 2
 540 0 l 2
 505.185441611 0 510 6.45391155459 510 40 c 2
 510 86 l 2
 510 109.900197467 517.658040615 105 540 105 c 2
 576 105 l 2
 620.627122428 105 609.983078317 111.884046337 599.211678832 142 c 2
 592.058394161 162 l 2
 581.966771481 190.215353207 578.264371703 190 540 190 c 2
 330 190 l 2
 277.577534192 190 279.148091543 181.924968449 264.308496732 146 c 0
 248.517513969 107.771829703 241.73851451 105 298 105 c 0
 329.492316069 105 340 111.853628444 340 78 c 2
 340 38 l 2
 340 2.75899573373 342.40559968 0 306 0 c 2
EndSplineSet
EndChar

StartChar: B
Encoding: 66 66 13
Width: 830
Flags: HMW
LayerCount: 2
Fore
SplineSet
470 0 m 0
 82 0 l 2
 36.5560604244 0 30 -5.23601110416 30 42 c 2
 30 64 l 2
 30 103.212224041 28.4666148708 105 68 105 c 2
 100 105 l 2
 149.591469541 105 140 119.531911018 140 166 c 2
 140 606 l 2
 140 647.794876732 136.709444612 645 96 645 c 2
 70 645 l 2
 33.3732551656 645 30 642.113273924 30 680 c 2
 30 716 l 2
 30 754.071942542 35.1262712025 750 72 750 c 2
 450 750 l 0
 641 750 750 705 750 565 c 0
 750 492.803941548 712.2734375 444.3046875 652 414.379882812 c 4
 605.01171875 391.051757812 590.952148438 396.908203125 652 370.333007812 c 4
 729.354492188 336.658203125 780.00000001 290.848875959 780 210 c 0
 780 50 671 0 470 0 c 0
450 105 m 2
 536 105 580 146 580 225 c 0
 580 314 516 335 450 335 c 2
 378 335 l 2
 332.862829512 335 325 341.047219571 325 294 c 2
 325 164 l 2
 325 107.392682247 322.950095713 105 380 105 c 2
 450 105 l 2
374 440 m 2
 440 440 l 2
 506 440 560 466 560 545 c 0
 560 624 516 645 440 645 c 2
 368 645 l 2
 321.691076649 645 325 641.078775518 325 596 c 2
 325 492 l 2
 325 441.81278977 323.45502631 440 374 440 c 2
EndSplineSet
EndChar

StartChar: C
Encoding: 67 67 14
Width: 855
Flags: HMW
LayerCount: 2
Fore
SplineSet
828.902385609 248.000006046 m 4
 798.111193286 97.0090048901 662.427883249 -20 460 -20 c 0
 177 -20 45 152 45 375 c 0
 45 598 222 770 465 770 c 0
 528.837472248 770 581.20352194 751.012817838 623.000004518 721.777121766 c 0
 658.186316561 697.165090767 660.986206323 670.167671589 689.391304348 711 c 2
 706.782608696 736 l 2
 719.035374818 753.613351301 723.695989177 755 755 755 c 2
 794 755 l 2
 824.356069403 755 825 755.521180824 825 725 c 2
 825 519 l 2
 825 478.41232379 827.952053906 475 786 475 c 2
 742 475 l 2
 698.46350203 475 707.901449028 493.378970546 695.178882197 522.999996647 c 0
 661.102692339 602.337108618 583.887757184 662 480 662 c 0
 346 662 255 547 255 375 c 0
 255 203 336 89 470 89 c 0
 600.28094335 89 681.895482347 149.117323023 709.999992037 241.501125567 c 0
 721.038565985 277.786598869 708.093446378 295 758 295 c 2
 792 295 l 2
 839.068529364 295 837.304230717 289.200197035 828.902385609 248.000006046 c 4
EndSplineSet
EndChar

StartChar: D
Encoding: 68 68 15
Width: 895
Flags: HMW
LayerCount: 2
Fore
SplineSet
440 0 m 0
 94 0 l 2
 59.7583126502 0 30 -12.5458675499 30 26 c 2
 30 78 l 2
 30 108.509689502 34.487531239 105 64 105 c 2
 102 105 l 2
 149.46741001 105 140 119.575923372 140 164 c 2
 140 594 l 2
 140 643.189708432 141.544132799 645 92 645 c 2
 72 645 l 2
 31.7897754282 645 30 643.465302026 30 684 c 2
 30 718 l 2
 30 758.078239179 42.5076035764 750 80 750 c 6
 440 750 l 0
 723 750 850 588 850 375 c 0
 850 162 713 0 440 0 c 0
372 105 m 6
 440 105 l 2
 594 105 640 193 640 375 c 0
 640 557 584 645 440 645 c 2
 388 645 l 2
 330.387923062 645 325 649.601955187 325 590 c 2
 325 160 l 2
 325 110.319769125 320.538473191 105 372 105 c 6
EndSplineSet
EndChar

StartChar: E
Encoding: 69 69 16
Width: 775
Flags: HMW
LayerCount: 2
Fore
SplineSet
100 645 m 6
 72 645 l 2
 27.1712039219 645 30 648.313787812 30 692 c 2
 30 718 l 2
 30 758.078239179 42.5076035764 750 80 750 c 2
 706 750 l 2
 747.794876732 750 745 746.709444612 745 706 c 2
 745 534 l 2
 745 492.877629095 750.931705268 485 708 485 c 2
 676 485 l 2
 637.253959767 485 646.093956549 497.338378145 643.442558297 530.000001131 c 0
 636.686188227 613.229297879 605.569210385 645 505 645 c 2
 390 645 l 2
 327.406409952 645 325 647.056147439 325 584 c 2
 325 458 l 2
 325 431.295235829 322.295712172 428 350 428 c 0
 412.776998727 428 452.95451131 459.90515691 465.655321851 507.999997288 c 0
 471.627174913 530.613933526 462.021813812 543 492 543 c 2
 512 543 l 2
 549.890750758 543 545 536.568393451 545 500 c 2
 545 272 l 2
 545 238.469349286 551.988165362 228 516 228 c 2
 492 228 l 2
 462.492599766 228 471.609783953 239.20648977 466.019491609 261.999997672 c 0
 453.736944743 312.08008505 413.389954525 348 350 348 c 0
 325.625623352 348 325 348.519324548 325 324 c 2
 325 166 l 2
 325 114.175342463 317.968042731 105 372 105 c 2
 495 105 l 2
 613.49250646 105 646.705347198 144.647563888 653.516427328 244 c 0
 656.157532946 282.525501417 646.749069373 295 692 295 c 2
 718 295 l 2
 758.232531934 295 755 291.116537841 755 252 c 2
 755 52 l 2
 755 4.68653370162 758.973097139 0 710 0 c 2
 92 0 l 2
 46.9488653693 0 30 -10.5828776898 30 38 c 2
 30 68 l 2
 30 105.400155441 30.5360275952 105 68 105 c 2
 94 105 l 2
 146.429782497 105 140 113.345809979 140 164 c 2
 140 594 l 2
 140 637.795662847 145.607964761 645 100 645 c 6
EndSplineSet
EndChar

StartChar: F
Encoding: 70 70 17
Width: 765
Flags: HMW
LayerCount: 2
Fore
SplineSet
104 645 m 2
 64 645 l 2
 27.2651732157 645 30 648.255397237 30 684 c 2
 30 706 l 2
 30 753.320968389 33.9282210077 750 80 750 c 2
 686 750 l 2
 725.998351732 750 735 756.663120656 735 714 c 2
 735 534 l 2
 735 490.473776148 744.865704483 475 698 475 c 2
 666 475 l 2
 627.294706513 475 636.049587802 487.046038627 633.484663533 520.000005559 c 0
 626.816144989 605.676663627 595.779710411 645 495 645 c 2
 370 645 l 2
 319.86518947 645 325 638.590184371 325 590 c 2
 325 446 l 2
 325 427.606716488 324.72112888 418 340 418 c 4
 399.355561968 418 444.450036792 446.522174288 461.999998925 490.283097317 c 0
 473.840448981 519.807321904 459.839912015 533 502 533 c 2
 518 533 l 2
 547.185346523 533 545 530.396973401 545 502 c 2
 545 244 l 2
 545 220.594898779 551.826023839 208 526 208 c 2
 494 208 l 2
 464.218560089 208 472.206648139 214.78079216 466.288201218 237.999997635 c 0
 455.434938649 280.579433927 421.498756783 313.619801394 374.000003481 324.3178736 c 0
 353.931738973 328.837818394 325 337.949494811 325 310 c 2
 325 152 l 2
 325 125.05447185 315.775479565 105 346 105 c 2
 402 105 l 2
 433.74875023 105 445 112.181768583 445 78 c 2
 445 30 l 2
 445 -1.4253719449 443.342322196 0 412 0 c 2
 66 0 l 2
 35.2406421687 0 30 -4.04963514128 30 28 c 2
 30 68 l 2
 30 99.093076081 25.5436684837 105 58 105 c 2
 90 105 l 2
 128.136966664 105 140 107.071404284 140 138 c 6
 140 606 l 2
 140 643.216000598 141.530550537 645 104 645 c 2
EndSplineSet
EndChar

StartChar: G
Encoding: 71 71 18
Width: 925
Flags: HMW
LayerCount: 2
Fore
SplineSet
525 390 m 6
 875 390 l 2
 907.383324916 390 915 395.565437113 915 361 c 2
 915 317 l 2
 915 287.698604132 917.309380861 285 887 285 c 2
 855 285 l 2
 816.222574671 285 815 286.033775573 815 247 c 0
 815 204.012980785 812.069805024 186.45149422 793.000003465 153.728685001 c 0
 744.249001614 70.0744462393 619.643112367 -20 450 -20 c 0
 202 -20 45 132 45 375 c 0
 45 598 212 770 455 770 c 0
 532.892141591 770 592.597035101 744.323885064 637.000001523 706.713607705 c 0
 661.907224126 685.616648969 659.61322815 682.569015466 679.391304348 711 c 2
 697.47826087 737 l 2
 708.744331158 753.19497604 712.284410007 755 741 755 c 2
 777 755 l 2
 808.94988649 755 805 749.862850461 805 719 c 2
 805 521 l 2
 805 487.727704478 812.897718686 475 777 475 c 2
 727 475 l 2
 692.096765576 475 698.936601036 486.458476667 689.948923286 510.999996559 c 0
 658.730636738 596.243840585 579.063754003 662 470 662 c 0
 356 662 255 547 255 375 c 0
 255 203 326 85 445 85 c 0
 527.889842624 85 570.759738997 109.139015198 605 150.328910881 c 0
 619.188154028 167.396788497 630 177.240362837 630 211 c 2
 630 249 l 2
 630 286.415815046 628.353530423 285 591 285 c 2
 537 285 l 2
 494.693597807 285 485 277.862132543 485 323 c 2
 485 361 l 2
 485 395.439864798 492.526750828 390 525 390 c 6
EndSplineSet
EndChar

StartChar: H
Encoding: 72 72 19
Width: 960
Flags: HMW
LayerCount: 2
Fore
SplineSet
325 607 m 2
 325 477 l 2
 325 443.346294893 322.164569452 440 357 440 c 2
 605 440 l 2
 644.049502389 440 635 455.206809362 635 491 c 2
 635 623 l 2
 635 648.996287411 629.528100467 645 605 645 c 2
 551 645 l 2
 512.710805585 645 515 647.670598081 515 685 c 2
 515 725 l 2
 515 755.951910744 523.991188855 750 553 750 c 2
 889 750 l 2
 920.22747893 750 930 756.517937722 930 723 c 2
 930 671 l 2
 930 641.5110689 925.510204001 645 897 645 c 2
 859 645 l 2
 823.364014468 645 820 647.869875909 820 611 c 2
 820 143 l 2
 820 114.075704982 813.952300862 105 845 105 c 2
 901 105 l 2
 929.362263185 105 930 105.520650841 930 77 c 2
 930 27 l 2
 930 -3.92686751406 924.858083441 0 895 0 c 2
 553 0 l 2
 527.497651196 0 515 -7.06939208302 515 21 c 2
 515 73 l 2
 515 107.245067752 517.638517512 105 551 105 c 2
 611 105 l 2
 641.224447203 105 635 114.751591263 635 143 c 2
 635 305 l 2
 635 340.859364419 626.782014455 335 593 335 c 2
 371 335 l 2
 331.549640115 335 325 340.088641207 325 299 c 2
 325 145 l 2
 325 107.780612189 322.563806327 105 361 105 c 2
 415 105 l 2
 441.069006042 105 445 108.11337849 445 81 c 2
 445 37 l 2
 445 0.662879261746 445.522412527 0 409 0 c 2
 69 0 l 2
 38.328988026 0 30 -5.82232223202 30 27 c 2
 30 69 l 2
 30 99.0874284897 25.5742835162 105 57 105 c 2
 107 105 l 2
 145.296014228 105 140 112.09930271 140 149 c 2
 140 607 l 2
 140 650.419729712 132.934197692 645 91 645 c 2
 63 645 l 2
 26.3799906009 645 30 649.489440714 30 685 c 2
 30 725 l 2
 30 759.31386865 47.814100476 750 79 750 c 2
 391 750 l 2
 422.757059844 750 445 755.576171875 445 720 c 6
 445 675 l 2
 445 641.869203798 441.147504192 645 409 645 c 2
 355 645 l 2
 321.006630667 645 325 639.869549022 325 607 c 2
EndSplineSet
EndChar

StartChar: I
Encoding: 73 73 20
Width: 495
Flags: HMW
LayerCount: 2
Fore
SplineSet
335 603 m 6
 335 137 l 2
 335 105.108005932 335.000273303 105 367 105 c 2
 441 105 l 2
 471.867290955 105 465 93.7421996053 465 65 c 2
 465 29 l 2
 465 -3.54893082962 460.514506647 0 429 0 c 2
 75 0 l 2
 31.2366203234 0 30 -1.03649218458 30 43 c 2
 30 85 l 2
 30 109.270912249 36.1838583966 105 59 105 c 2
 123 105 l 2
 158.173832371 105 150 118.763101815 150 151 c 2
 150 613 l 2
 150 652.047250104 139.67724218 645 103 645 c 2
 65 645 l 2
 30.6565125084 645 30 644.477948672 30 679 c 2
 30 709 l 2
 30 746.012092492 26.6584472366 750 65 750 c 2
 425 750 l 2
 454.443576031 750 465 756.709742947 465 725 c 2
 465 673 l 2
 465 642.802197719 462.390395925 645 433 645 c 2
 365 645 l 2
 329.140635581 645 335 636.782014455 335 603 c 6
EndSplineSet
EndChar

StartChar: J
Encoding: 74 74 21
Width: 666
Flags: HMW
LayerCount: 2
Fore
SplineSet
160 120 m 0
 160 103 184 75 236 75 c 0
 307 75 341 110 341 240 c 2
 341 607 l 2
 341 643.782827879 342.032481795 645 305 645 c 2
 253 645 l 2
 216.966095903 645 221 650.126998729 221 685 c 2
 221 723 l 2
 221 751.716895811 223.002948561 750 251 750 c 2
 609 750 l 2
 639.076022088 750 646 755.0913913 646 723 c 2
 646 677 l 2
 646 644.58394426 645.463021481 645 613 645 c 2
 565 645 l 2
 518.606596077 645 526 634.734368627 526 591 c 6
 526 270 l 2
 526 100 397 -20 236 -20 c 0
 59 -20 0 95 0 185 c 0
 0 267 59 320 119 320 c 0
 176 320 223 284 223 221 c 0
 223 141 160 148 160 120 c 0
EndSplineSet
EndChar

StartChar: K
Encoding: 75 75 22
Width: 940
Flags: HMW
LayerCount: 2
Fore
SplineSet
923 0 m 6
 557 0 l 2
 524.58394426 0 525 0.536978519388 525 33 c 2
 525 65 l 2
 525 96.6782411747 519.121245131 105 553 105 c 2
 579 105 l 2
 628.420939846 105 601.547837484 120.435933748 585.538095238 143 c 2
 466.338095238 311 l 2
 436.401119682 353.193052798 430.177094939 332.22742856 395 301.090106007 c 2
 345 256.832155477 l 2
 328.114327428 241.88565025 325 236.691111972 325 203 c 2
 325 149 l 2
 325 107.366617458 322.973460225 105 365 105 c 2
 413 105 l 2
 445.925993152 105 445 103.911792401 445 71 c 2
 445 31 l 2
 445 -3.58556523504 440.513712274 0 407 0 c 2
 79 0 l 2
 35.2782267265 0 30 -4.34697603015 30 41 c 2
 30 63 l 2
 30 92.6406918264 22.4966981198 105 55 105 c 2
 105 105 l 2
 149.909954758 105 140 121.164016312 140 163 c 2
 140 611 l 2
 140 649.497760836 134.228842597 645 97 645 c 2
 69 645 l 2
 27.2051232677 645 30 648.290555388 30 689 c 2
 30 719 l 2
 30 750.928475735 31.0891251851 750 63 750 c 2
 411 750 l 2
 441.678011448 750 445 752.781554323 445 721 c 2
 445 677 l 2
 445 641.838326201 441.140555406 645 407 645 c 2
 359 645 l 2
 321.809011344 645 325 641.131962388 325 605 c 2
 325 437 l 2
 325 357.863667146 332.573271958 378.972489984 371 412.512195122 c 2
 595 608.024390244 l 2
 620.197738597 630.017538392 639.113996558 645 593 645 c 6
 557 645 l 2
 524.590977962 645 520 641.321061305 520 675 c 2
 520 709 l 2
 520 758.593433243 532.357215867 750 579 750 c 2
 861 750 l 2
 891.671011974 750 900 755.822322232 900 723 c 2
 900 673 l 2
 900 644.571469298 899.46200844 645 871 645 c 2
 835 645 l 2
 776.329811477 645 768.298211 631.518381115 739 605.584805654 c 2
 609 490.514134276 l 2
 572.448252864 458.160025945 588.290363934 452.228124448 616.173469388 415 c 2
 821.393877551 141 l 2
 839.373148768 116.994978484 840.396382382 105 885 105 c 2
 919 105 l 2
 951.045717006 105 955 108.245145394 955 75 c 2
 955 31 l 2
 955 -0.419198796014 954.462793269 0 923 0 c 6
EndSplineSet
EndChar

StartChar: L
Encoding: 76 76 23
Width: 760
Flags: HMW
LayerCount: 2
Fore
SplineSet
108 645 m 6
 56 645 l 2
 21.3613502913 645 30 660.360190755 30 692 c 2
 30 728 l 2
 30 755.428011591 38.3224326473 750 64 750 c 2
 426 750 l 2
 454.362263185 750 455 750.520650841 455 722 c 2
 455 684 l 2
 455 646.219855539 456.033145797 645 418 645 c 2
 366 645 l 2
 313.690558014 645 325 626.779219273 325 578 c 2
 325 184 l 2
 325 120.23460998 313.920036803 105 382 105 c 2
 440 105 l 2
 546.774162352 105 625.231826833 140.812041426 638.13064887 274 c 0
 641.147862407 305.154512446 633.130852665 315 670 315 c 2
 704 315 l 2
 738.638649709 315 730 299.639809245 730 268 c 2
 730 32 l 2
 730 -8.07823917894 717.492396424 0 680 0 c 2
 70 0 l 2
 35.2413252779 0 30 -4.15117132027 30 32 c 2
 30 62 l 2
 30 97.7667134218 24.6224354906 105 62 105 c 2
 100 105 l 2
 146.285364009 105 140 113.381475084 140 158 c 2
 140 610 l 2
 140 643.222476244 141.523873473 645 108 645 c 6
EndSplineSet
EndChar

StartChar: M
Encoding: 77 77 24
Width: 1145
Flags: HMW
LayerCount: 2
Fore
SplineSet
134 645 m 2
 88 645 l 2
 52.7436476081 645 55 647.646283716 55 682 c 2
 55 720 l 2
 55 760.178201117 73.3310490304 750 110 750 c 2
 378 750 l 2
 412.161511342 750 418.291612037 752.242114732 426.58271237 726 c 2
 509.360655738 464 l 2
 542.210457332 360.027278916 540.509796547 364.934212117 553.02174372 312 c 0
 571.031063173 235.808091354 578.103622562 232.644892234 598.669594559 308 c 0
 612.699143963 359.405214758 613.910448431 364.328360028 647.684210526 456 c 2
 730.947368421 682 l 2
 744.60413695 719.068371723 739.715563132 750 794 750 c 2
 1036 750 l 2
 1073.99597041 750 1090 759.674272386 1090 718 c 2
 1090 686 l 2
 1090 645.67572681 1090.52302325 645 1050 645 c 2
 1022 645 l 2
 978.566501273 645 984.471109344 638.222266406 986.08 598 c 2
 1003.2 170 l 2
 1004.84287174 128.928206589 993.060351179 105 1040 105 c 2
 1092 105 l 2
 1125.39436497 105 1120 97.4693608607 1120 66 c 2
 1120 38 l 2
 1120 2.75899573373 1122.40559968 0 1086 0 c 2
 748 0 l 2
 720.643636215 0 705 -8.24005155468 705 22 c 2
 705 62 l 2
 705 98.4444973645 699.993293165 105 738 105 c 2
 786 105 l 2
 832.592419155 105 820.903684022 122.889479326 819.533333333 164 c 2
 811.733333333 398 l 2
 810.439219848 436.823404562 809.892961321 476.370882406 808.757111216 516 c 0
 806.409228734 597.916188171 802.746930209 597.998588496 781.304677314 516 c 0
 771.475875876 478.413098637 761.292274199 440.910307416 749.578947368 406 c 2
 628.118421053 44 l 2
 619.57338774 18.5324497357 622.445803243 -10 586 -10 c 2
 520 -10 l 2
 481.419298289 -10 476.442224129 -11.3552029761 466.863157895 18 c 2
 351.347368421 372 l 2
 334.0189583 425.103192305 316.84839034 478.424952118 299.83062331 532 c 0
 275.35658004 609.048771308 269.547374099 615.692815167 268.523950111 530 c 0
 267.923570711 479.729338357 267.197358441 429.933961031 265.28 382 c 2
 256.56 164 l 2
 254.779593678 119.489841952 244.028802376 105 294 105 c 2
 340 105 l 2
 363.758680881 105 370 109.409066152 370 84 c 2
 370 40 l 2
 370 8.32175882529 375.878754869 0 342 0 c 2
 72 0 l 2
 40.4357317562 0 25 -8.73963605504 25 26 c 2
 25 66 l 2
 25 103.780144461 23.9668542033 105 62 105 c 2
 112 105 l 2
 150.252604634 105 140.813154276 124.567591624 142.373333333 158 c 2
 162.906666667 598 l 2
 164.533548337 632.861750074 173.496875398 645 134 645 c 2
EndSplineSet
EndChar

StartChar: N
Encoding: 78 78 25
Width: 935
Flags: HMW
LayerCount: 2
Fore
SplineSet
102 645 m 6
 57 645 l 2
 22.9153663922 645 30 656.156827152 30 688 c 2
 30 712 l 2
 30 750.396945081 30.5358684975 750 69 750 c 2
 273 750 l 2
 321.214594306 750 324.640752631 739.146820061 346.09009009 715 c 2
 649.884684685 373 l 2
 684.003648261 334.590213418 705 299.54206144 705 379 c 6
 705 613 l 2
 705 648.603038625 700.512405234 645 666 645 c 2
 636 645 l 2
 604.034681005 645 595 638.765381783 595 673 c 2
 595 715 l 2
 595 755.750203591 602.754244336 750 642 750 c 2
 891 750 l 2
 914.805234973 750 925 756.118956768 925 730 c 2
 925 688 l 2
 925 645.145132971 924.99963275 645 882 645 c 2
 858 645 l 2
 825.902446293 645 820 649.485905995 820 616 c 2
 820 34 l 2
 820 3.90661458236 828.074894319 -10 795 -10 c 2
 741 -10 l 2
 702.650338134 -10 697.615172479 10.807037663 680.743421053 31 c 2
 294.730263158 493 l 2
 265.619122088 527.84168065 250 571.923757324 250 487 c 2
 250 160 l 2
 250 110.319769125 245.538473191 105 297 105 c 2
 339 105 l 2
 362.956637891 105 365 106.764823381 365 82 c 2
 365 28 l 2
 365 -10.7132394337 344.137488995 0 309 0 c 2
 78 0 l 2
 44.5812371821 0 30 -8.68169319522 30 28 c 2
 30 70 l 2
 30 99.7573222163 25.9777506 105 57 105 c 2
 99 105 l 2
 145.8006823 105 135 123.09439555 135 166 c 2
 135 598 l 2
 135 635.293310592 141.87700863 645 102 645 c 6
EndSplineSet
EndChar

StartChar: O
Encoding: 79 79 26
Width: 890
Flags: HMW
LayerCount: 2
Fore
SplineSet
45 375 m 0
 45 588 182 770 445 770 c 0
 708 770 845 588 845 375 c 0
 845 162 698 -20 445 -20 c 0
 182 -20 45 162 45 375 c 0
255 375 m 0
 255 193 311 80 445 80 c 0
 589 80 635 193 635 375 c 0
 635 557 579 670 445 670 c 0
 311 670 255 557 255 375 c 0
EndSplineSet
EndChar

StartChar: P
Encoding: 80 80 27
Width: 765
Flags: HMW
LayerCount: 2
Fore
SplineSet
106 645 m 6
 62 645 l 2
 22.9527498956 645 30 655.32275782 30 692 c 2
 30 730 l 2
 30 760.572641689 58.8820730141 750 86 750 c 2
 425 750 l 2
 626 750 735 680 735 530 c 0
 735 380 626 300 425 300 c 2
 366 300 l 2
 329.607873165 300 325 303.765516287 325 266 c 2
 325 154 l 2
 325 116.136659836 317.415026786 105 358 105 c 2
 422 105 l 2
 460.994431117 105 455 96.7921507008 455 60 c 2
 455 28 l 2
 455 -10.4619921991 434.950912774 0 400 0 c 2
 92 0 l 2
 50.6103931405 0 30 -11.5745684765 30 34 c 2
 30 78 l 2
 30 107.639711275 33.2175339436 105 62 105 c 2
 106 105 l 2
 143.636516665 105 140 109.491781691 140 146 c 2
 140 612 l 2
 140 645.412898882 139.463235497 645 106 645 c 6
366 405 m 6
 415 405 l 2
 491 405 535 441 535 530 c 0
 535 619 491 645 415 645 c 2
 368 645 l 2
 330.24917686 645 325 649.220589138 325 610 c 2
 325 458 l 2
 325 412.862829512 318.952780429 405 366 405 c 6
EndSplineSet
EndChar

StartChar: Q
Encoding: 81 81 28
Width: 890
Flags: HMW
LayerCount: 2
Fore
SplineSet
45 375 m 0
 45 588 182 770 445 770 c 0
 708 770 845 588 845 375 c 0
 845 246.792303304 791.741819671 129.815923548 694.166484654 57.0000039457 c 0
 672.873786861 41.1102571123 653.290261611 37.7662305205 678 15.663002696 c 0
 687.048454703 7.56902563294 696.91719966 3 708 3 c 0
 746.529324642 3 770.235520901 21.1171569135 784.000000107 49.215785189 c 0
 791.738509987 65.0130782993 786.911153575 82 812 82 c 2
 866 82 l 2
 891.096872673 82 884.638458651 72.7770634098 880.729159545 53.0000032712 c 0
 860.289054421 -50.4060491373 786.004329476 -145 700 -145 c 0
 628.553046984 -145 595.979374179 -93.2220652923 571.056060173 -31.000002227 c 0
 559.668061849 -2.56940307891 557.1170891 -8.13947358989 525.000021854 -13.5254223452 c 4
 499.666956633 -17.7737115818 472.981793076 -20 445 -20 c 0
 182 -20 45 162 45 375 c 0
328 121.975080831 m 4
 357.892067639 94.6783332504 396.704802283 80 445 80 c 0
 465.51347515 80 484.139669839 82.2931472264 501.000001077 86.7522429071 c 0
 528.718937068 94.0831420459 519.638070273 102.659918637 507 121.815723293 c 0
 484.214098206 156.352822251 453.092976648 180 404 180 c 0
 376.665201261 180 354.00034766 172.177841893 338.000001861 159.964173462 c 0
 321.079743919 147.048301339 312.272695366 136.336893133 328 121.975080831 c 4
618.765557606 208.99999129 m 4
 633.551327237 254.289753238 640 310.282539161 640 375 c 0
 640 557 579 670 445 670 c 0
 311 670 250 557 250 375 c 0
 250 329.44760667 253.821285256 288.217650761 261.652004234 252.000009981 c 0
 273.268149232 198.274500492 272.501471846 220.049669552 290.380134485 255.999998225 c 0
 316.285321103 308.090022635 362.044067511 353 432 353 c 0
 509.455882992 353 553.412998261 284.435270742 586.761726129 208.000002476 c 0
 603.049876618 170.667569373 604.517667296 165.357788243 618.765557606 208.99999129 c 4
EndSplineSet
EndChar

StartChar: R
Encoding: 82 82 29
Width: 868
Flags: HMW
LayerCount: 2
Fore
SplineSet
890 97.895169917 m 0
 848.609312862 31.9888536314 789.549779895 -20 685 -20 c 0
 432.03125 -20 621.256835938 320 395 320 c 2
 350 320 l 2
 327.033491521 320 325 321.748593315 325 298 c 2
 325 136 l 2
 325 106.199690801 323.973409171 105 354 105 c 2
 400 105 l 2
 423.202777586 105 435 111.562824833 435 86 c 2
 435 38 l 2
 435 1.78223462457 436.529017484 0 400 0 c 2
 58 0 l 2
 27.8021977192 0 30 2.60960407534 30 32 c 2
 30 74 l 2
 30 102.903497317 28.1577939889 105 58 105 c 2
 102 105 l 2
 136.644979544 105 140 102.147215766 140 138 c 2
 140 614 l 2
 140 648.585565235 135.513712274 645 102 645 c 2
 68 645 l 2
 28.5880848792 645 30 646.643501705 30 686 c 2
 30 722 l 2
 30 755.762599248 38.231974274 750 70 750 c 2
 465 750 l 2
 686 750 765 665 765 545 c 0
 765 474.609654019 723.811523438 412.633789062 623 387.6953125 c 4
 557.463867188 371.483398438 579.416992188 369.989257812 627.791992188 348 c 4
 768.916992188 283.850585938 694.224790298 114.000000163 768 114 c 0
 782.147884673 114 799.47295412 124.439321399 815.999999029 142.260110879 c 0
 838.678846574 166.714268898 834.862824097 176.426098795 864 152.296875 c 2
 878 140.703125 l 2
 898.576806598 123.662957036 905.413484602 122.438033577 890 97.895169917 c 0
364 430 m 2
 465 430 l 2
 521 430 575 466 575 545 c 0
 575 624 521 645 465 645 c 2
 356 645 l 2
 327.689393624 645 325 647.292501116 325 618 c 2
 325 464 l 2
 325 427.265173216 328.255397237 430 364 430 c 2
EndSplineSet
Substitution2: "'ss01' Style Set 1 lookup 2-1" uniFFFD
EndChar

StartChar: S
Encoding: 83 83 30
Width: 670
Flags: HMW
LayerCount: 2
Fore
SplineSet
528.991729655 530.999846086 m 4
 504.803481182 619.453372691 412.378749447 664 340 664 c 0
 254 664 216 637 216 588 c 0
 216 438 650 520 650 210 c 0
 650 70 531 -20 350 -20 c 0
 265.676702577 -20 207.455357634 2.60799033746 168.999999388 34.7793355739 c 0
 151.407718296 49.4968515278 151.797820209 59.0994287516 138.537037037 36 c 2
 124.759259259 12 l 2
 115.639147321 -3.88664660297 112.909215359 -5 87 -5 c 2
 40 -5 l 2
 15.3763873531 -5 20 1.90214395837 20 25 c 2
 20 255 l 2
 20 280.296303358 28.3749811086 275 52 275 c 2
 92 275 l 2
 123.860563745 275 113.744872946 260.52908113 119.411995944 235.000002874 c 0
 137.862743074 151.88365487 212.889281224 81 320 81 c 0
 426 81 470 136 470 195 c 0
 470 375 40 259 40 549 c 0
 40 699 179 765 310 765 c 0
 372.684982672 765 424.862543595 748.224993348 463.999993319 721.956462216 c 0
 488.875598241 705.260289957 493.151068006 683.851688138 511.591836735 713 c 2
 525.510204082 735 l 2
 535.863589502 751.365028568 544.860517927 750 572 750 c 2
 604 750 l 2
 632.624604365 750 630 746.786290559 630 719 c 2
 630 525 l 2
 630 494.790743415 636.451519796 485 604 485 c 2
 560 485 l 2
 524.572609428 485 536.203537413 504.627129183 528.991729655 530.999846086 c 4
EndSplineSet
EndChar

StartChar: T
Encoding: 84 84 31
Width: 735
Flags: HMW
LayerCount: 2
Fore
SplineSet
566 0 m 2
 178 0 l 2
 148.314613711 0 145 -2.76289396395 145 28 c 2
 145 72 l 2
 145 104.888618883 145.000281843 105 178 105 c 2
 246 105 l 2
 279.787201443 105 275 111.463565021 275 144 c 2
 275 613 l 6
 275 639.705078125 277.704287828 650 250 650 c 0
 154.297280864 650 117.793336582 619.600629129 111.151865986 508 c 0
 109.258618295 476.186619158 117.131051948 465 80 465 c 2
 36 465 l 2
 3.31186244086 465 10 475.440323376 10 506 c 2
 10 722 l 2
 10 752.197802281 12.6096040753 750 42 750 c 2
 688 750 l 2
 715.905784517 750 725 755.981021631 725 726 c 2
 725 508 l 2
 725 478.129419614 732.792399943 465 700 465 c 2
 652 465 l 2
 616.466161903 465 625.598306695 480.40358757 623.725359386 510 c 0
 616.766496606 619.964317631 580.128517978 650 485 650 c 0
 458.304944738 650 460 648.013315289 460 622 c 2
 460 134 l 2
 460 105.637736815 459.479349159 105 488 105 c 2
 558 105 l 2
 583.767053221 105 590 109.516321681 590 82 c 2
 590 34 l 2
 590 6.93102917179 594.935619121 0 566 0 c 2
EndSplineSet
EndChar

StartChar: U
Encoding: 85 85 32
Width: 870
Flags: HMW
LayerCount: 2
Fore
SplineSet
614 645 m 2
 548 645 l 2
 519.571469298 645 520 645.53799156 520 674 c 2
 520 730 l 2
 520 757.141363536 533.283628815 750 558 750 c 2
 834 750 l 2
 860.413528832 750 865 753.529835692 865 726 c 2
 865 680 l 2
 865 654.926076914 871.079728143 645 844 645 c 2
 786 645 l 2
 760.262639525 645 755 648.902140266 755 622 c 2
 755 300 l 2
 755 95 623 -20 425 -20 c 0
 172 -20 115 117 115 310 c 2
 115 622 l 2
 115 649.785418343 108.13701739 645 82 645 c 2
 28 645 l 2
 0.214581656675 645 5 651.86298261 5 678 c 2
 5 736 l 2
 5 756.819119766 21.4591477012 750 40 750 c 2
 384 750 l 2
 413.075317847 750 420 755.040999476 420 724 c 2
 420 668 l 2
 420 642.423948803 416.794341201 645 392 645 c 2
 332 645 l 2
 303.307665127 645 300 639.744140625 300 610 c 6
 300 330 l 2
 300 188 336 92 450 92 c 0
 554 92 645 148 645 300 c 2
 645 618 l 2
 645 647.185346523 642.396973401 645 614 645 c 2
EndSplineSet
EndChar

StartChar: V
Encoding: 86 86 33
Width: 920
Flags: HMW
LayerCount: 2
Fore
SplineSet
532.740234375 224 m 4
 544.36328125 252.049804688 542.750782585 257.956799613 585.728104575 362 c 2
 688.169934641 610 l 2
 700.207416924 639.14137325 710.341531807 645 666 645 c 2
 644 645 l 2
 611.776178215 645 610 643.478050372 610 676 c 2
 610 718 l 2
 610 754.866256334 616.438023827 750 652 750 c 2
 890 750 l 2
 915.03974891 750 930 757.717071457 930 730 c 2
 930 674 l 2
 930 638.825114555 921.068987677 645 888 645 c 2
 854 645 l 2
 812.159017951 645 814.44272915 619.627876687 802.669281046 592 c 2
 564.881045752 34 l 2
 551.141349417 1.75807455295 554.846649955 -15 506 -15 c 2
 418 -15 l 2
 372.37062851 -15 376.072788506 7.39120259925 363.869281046 38 c 2
 131.032679739 622 l 2
 120.375725157 648.729738542 108.849311797 645 72 645 c 2
 18 645 l 2
 -16.122014365 645 -10 653.942894122 -10 686 c 2
 -10 726 l 2
 -10 754.835020786 -3.14533351352 750 24 750 c 2
 410 750 l 2
 438.802562184 750 440 751.02551716 440 722 c 2
 440 664 l 2
 440 637.730301813 425.843296104 645 402 645 c 2
 372 645 l 2
 332.649374768 645 338.709802216 641.770552988 348.642335766 614 c 2
 435.912408759 370 l 2
 474.385886041 262.431298212 463.767973872 285.185588845 481.487268626 230 c 0
 503 163 506.017578125 159.509765625 532.740234375 224 c 4
EndSplineSet
EndChar

StartChar: W
Encoding: 87 87 34
Width: 1250
Flags: HMW
LayerCount: 2
Fore
SplineSet
450.190429688 270 m 0
 464.442382812 303.268554688 475.430091397 330.193358673 486.889728097 357 c 2
 574.098187311 561 l 2
 582.62930569 580.956185042 586.013513766 587.866187196 578.060526316 609 c 2
 570.157894737 630 l 2
 563.850698805 646.760380798 552.657729348 645 528 645 c 2
 507 645 l 2
 477.092187746 645 485 659.772552004 485 687 c 2
 485 717 l 2
 485 757.454612182 496.027190698 750 534 750 c 2
 777 750 l 2
 808.45182819 750 835 761.380688658 835 726 c 2
 835 687 l 2
 835 650.245972754 839.197993135 645 801 645 c 0
 754.293833507 645 747.837315273 649.705032538 760.182222222 612 c 2
 834.831111111 384 l 2
 854.270179035 324.627281227 855.377642556 319.316590288 864.585338206 285 c 0
 886.735222038 202.448565064 883.877929688 194.92578125 909.41796875 270 c 4
 923.86328125 312.4609375 922.417389648 310.747030805 952.031578947 396 c 2
 1020.81052632 594 l 2
 1038.12267064 643.837991246 1042.46897717 645 975 645 c 0
 932.19366531 645 935 648.29814689 935 690 c 2
 935 708 l 2
 935 751.897790213 937.205982717 750 981 750 c 2
 1221 750 l 2
 1255.92087619 750 1255 748.913467517 1255 714 c 2
 1255 678 l 2
 1255 650.25004664 1258.96451853 645 1230 645 c 2
 1188 645 l 2
 1145.5570279 645 1148.58199726 636.092463563 1138.16842105 606 c 2
 945.071052632 48 l 2
 931.704169898 9.37326662554 937.408180868 -10 882 -10 c 2
 846 -10 l 2
 802.326402795 -10 806.075258918 3.08672455377 794.818421053 33 c 2
 703.373684211 276 l 2
 671.237609499 361.39656217 671.286154335 360.444893141 659.600445258 405 c 0
 643.211144073 467.488896552 640.856445312 462.7421875 621.100585938 414 c 0
 607.616210938 380.73046875 602.991518528 362.207776745 571.49244713 288 c 2
 464.525679758 36 l 2
 450.055049776 1.90904964944 453.090882981 -10 402 -10 c 2
 357 -10 l 2
 321.982841437 -10 325.38292998 2.75990260116 316.611842105 27 c 2
 109.276315789 600 l 2
 98.5938015553 629.522584792 102.810934422 645 60 645 c 2
 30 645 l 2
 -7.27840228025 645 -5 647.662337902 -5 684 c 2
 -5 726 l 2
 -5 760.313445537 17.2676973842 750 48 750 c 2
 339 750 l 2
 371.160021004 750 385 758.289468846 385 723 c 2
 385 675 l 2
 385 642.778100496 382.376410402 645 351 645 c 2
 321 645 l 2
 266.204787524 645 288.750639929 625.708409293 300.968 591 c 2
 380.168 366 l 2
 392.700764587 330.39555515 400.58984375 297.29296875 416.682617188 255 c 0
 430 220 433.978448692 232.156121928 450.190429688 270 c 0
EndSplineSet
EndChar

StartChar: X
Encoding: 88 88 35
Width: 900
Flags: HMW
LayerCount: 2
Fore
SplineSet
53 750 m 2
 439 750 l 2
 470.411780962 750 475 753.655929906 475 721 c 2
 475 677 l 2
 475 646.202016793 476.027595351 645 445 645 c 2
 407 645 l 2
 361.677537734 645 380.606174951 636.108039314 397.213235294 615 c 2
 463.301470588 531 l 2
 498.391575262 486.399493125 497.963711876 490.049431211 536.347578348 531 c 2
 616.957264957 617 l 2
 633.96159227 635.141394792 656.857547222 645 611 645 c 2
 579 645 l 2
 542.732540824 645 545 647.654228741 545 683 c 2
 545 727 l 2
 545 758.800160963 562.137062611 750 591 750 c 2
 865 750 l 2
 894.757322216 750 900 754.0222494 900 723 c 2
 900 673 l 2
 900 643.272473496 897.988630184 645 869 645 c 2
 815 645 l 2
 765.1380975 645 761.283235937 631.403115994 738.618233618 607 c 2
 591.871794872 449 l 2
 565.508035954 420.614480429 552.71375856 417.354475101 578.169117647 385 c 2
 779.580882353 129 l 2
 794.067959694 110.58651852 796.317924872 105 831 105 c 2
 881 105 l 2
 904.217449303 105 900 98.8036106182 900 77 c 2
 900 37 l 2
 900 -3.23253193432 896.116537841 0 857 0 c 2
 509 0 l 2
 469.697768128 0 460 -6.984773851 460 35 c 2
 460 71 l 2
 460 105.409729419 460.536563443 105 495 105 c 2
 541 105 l 2
 579.536251771 105 547.648526934 125.949155715 535.895588235 141 c 2
 443.751470588 259 l 2
 415.195215998 295.569214917 415.826180711 297.065200387 384.249370277 263 c 2
 257.256926952 126 l 2
 238.626404115 105.901310961 243.806640625 105 284 105 c 2
 302 105 l 2
 334.097553707 105 340 109.485905995 340 76 c 2
 340 32 l 2
 340 -2.24506775184 337.361482488 0 304 0 c 2
 34 0 l 2
 -4.07194254207 0 0 5.12627120251 0 42 c 2
 0 78 l 2
 0 104.36837253 -0.520038744133 105 26 105 c 2
 76 105 l 2
 121.105038742 105 129.91121068 131.193397951 151.22418136 154 c 2
 316.632241814 331 l 2
 351.298645269 368.09585491 357.421288411 369.554658909 325.057352941 411 c 2
 165.757352941 615 l 2
 146.770260448 639.314920707 142.887796014 645 97 645 c 2
 39 645 l 2
 4.07912381047 645 5 646.086532483 5 681 c 2
 5 725 l 2
 5 759.057110571 22.0063261069 750 53 750 c 2
EndSplineSet
EndChar

StartChar: Y
Encoding: 89 89 36
Width: 845
Flags: HMW
LayerCount: 2
Fore
SplineSet
23 750 m 6
 395 750 l 2
 419.030663297 750 430 756.403898499 430 730 c 2
 430 684 l 2
 430 647.769728863 432.420971938 645 395 645 c 2
 377 645 l 2
 339.078751539 645 356.795499075 633.736704539 368.134615385 614 c 2
 439.375 490 l 2
 446.322981323 477.90644255 453.304373326 461.902102359 459 448.967594022 c 0
 473.576784178 415.86438216 476.131835938 415.443359375 492 446.466796875 c 0
 497.980100586 458.158336996 506.563743793 473.889564051 514.039443155 485 c 2
 602.183294664 616 l 2
 615.220171813 635.375496729 632.996528845 645 593 645 c 2
 559 645 l 2
 531.555260345 645 535 649.497279643 535 676 c 2
 535 724 l 2
 535 755.659336193 543.253028476 750 573 750 c 2
 815 750 l 2
 848.4304761 750 855 754.91746276 855 720 c 2
 855 686 l 2
 855 646.787775959 856.533385129 645 817 645 c 2
 777 645 l 2
 729.761707864 645 729.105131203 626.705537968 711.07424594 600 c 2
 555.784222738 370 l 2
 537.162046748 342.41870154 530 328.530921421 530 278 c 2
 530 142 l 2
 530 104.087119269 531.084356307 105 569 105 c 2
 617 105 l 2
 649.888618883 105 650 104.999718157 650 72 c 2
 650 34 l 2
 650 4.5848696794 653.607912307 0 623 0 c 2
 273 0 l 2
 240.239376761 0 235 -4.1018680721 235 30 c 2
 235 72 l 2
 235 104.349806836 234.478356215 105 267 105 c 2
 313 105 l 2
 347.709226735 105 345 108.242948261 345 142 c 2
 345 242 l 2
 345 286.803491266 333.410013256 298.050477199 317.1375 324 c 2
 141.554166667 604 l 2
 125.803326874 629.117618275 126.106806118 645 83 645 c 2
 33 645 l 2
 -1.6900600322 645 -10 638.961047597 -10 676 c 2
 -10 714 l 2
 -10 748.221011745 -11.5256867455 750 23 750 c 6
EndSplineSet
EndChar

StartChar: Z
Encoding: 90 90 37
Width: 775
Flags: HMW
LayerCount: 2
Fore
SplineSet
55 538 m 2
 55 710 l 2
 55 753.271691136 58.901354346 750 101 750 c 2
 671 750 l 2
 702.282149436 750 705 752.342329056 705 720 c 2
 705 650 l 2
 705 606.434957509 692.060087607 601.267848072 672.019230769 580 c 2
 266.826923077 150 l 2
 233.790437649 114.940872607 226.683294727 105 287 105 c 6
 485 105 l 2
 565.601829898 105 612.425998131 128.838584646 626.832842128 200 c 0
 638.691852246 258.576600457 629.286686458 285 663 285 c 2
 707 285 l 2
 743.269208675 285 735 271.267416049 735 238 c 2
 735 48 l 2
 735 -0.881345221466 733.921302864 0 685 0 c 2
 57 0 l 2
 22.7549322482 0 25 2.63851751194 25 36 c 2
 25 96 l 2
 25 142.327981254 36.8455298203 147.57076634 57.9807692308 170 c 2
 468.826923077 606 l 2
 502.647319786 641.891033243 514.902518161 645 441 645 c 2
 305 645 l 2
 213.026448205 645 168.339523252 613.229297591 157.602265518 530 c 0
 153.795356966 500.490945391 164.134810185 485 127 485 c 2
 83 485 l 2
 45.0546285102 485 55 503.436754373 55 538 c 2
EndSplineSet
EndChar

StartChar: a
Encoding: 97 97 38
Width: 651
VWidth: 1155
Flags: HMW
LayerCount: 2
Fore
SplineSet
229 374 m 0
 229 330 188 300 134 300 c 0
 78 300 45 329 45 383 c 0
 45 470 157 535 288 535 c 0
 438 535 516 493 516 352 c 2
 516 126 l 2
 516 106 528 82 552 82 c 0
 565.914508819 82 574.988678746 93.1327794514 583.263566073 108.999999225 c 0
 595.946375496 133.319475309 595.882347614 130.967744857 620 117.741935484 c 2
 635 109.516129032 l 2
 658.481889741 96.6389636905 654.751652954 91.1739409653 643 67.1930205541 c 0
 611.341384257 2.58910930735 568.583197846 -15 496 -15 c 0
 446.58269235 -15 402.131122178 2.44379844606 378.000001338 31.7030134695 c 4
 362.52237534 50.4697831574 364.935776479 52.690147173 340.000004959 30.356040018 c 0
 306.496554832 0.348159787971 258.797227493 -15 200 -15 c 0
 81 -15 15 34 15 128 c 0
 15 222 102 294 314 294 c 0
 345.352945895 294 346 293.478580111 346 325 c 6
 346 362 l 2
 346 429 313 464 263 464 c 0
 239 464 207 457 207 444 c 0
 207 431 229 422 229 374 c 0
322 228.772700407 m 4
 226.018246467 225.056823499 202 176.561960778 202 141 c 0
 202 104 225 79 260 79 c 0
 308 79 346 123 346 194 c 2
 346 213 l 2
 346 232.473988339 340.122159499 229.47428911 322 228.772700407 c 4
EndSplineSet
EndChar

StartChar: b
Encoding: 98 98 39
Width: 688
VWidth: 1155
Flags: HMW
LayerCount: 2
Fore
SplineSet
61 695 m 6
 38 695 l 2
 6.77496309338 695 5 693.480095169 5 725 c 2
 5 750 l 2
 5 789.624521828 21.7575766142 780 58 780 c 2
 207 780 l 2
 258.420264472 780 265 785.367434523 265 732 c 2
 265 492 l 2
 265 410.626395483 268.786477915 452.470964347 297 484.423209625 c 0
 327.197634537 518.6224926 370.51459171 539 431 539 c 0
 560 539 653 440 653 260 c 0
 653 80 550 -20 421 -20 c 0
 360.577509763 -20 312.967760368 3.50547245003 288.999999568 42.332299737 c 4
 272.466569319 69.1158047167 265 103.939238219 265 41 c 0
 265 -1.89918948868 262.791940415 0 220 0 c 2
 46 0 l 2
 10.8950588155 0 5 -4.56921270077 5 32 c 2
 5 51 l 2
 5 85.4097294188 5.53656344311 85 40 85 c 2
 67 85 l 2
 102.479916747 85 95 96.8746888798 95 130 c 2
 95 660 l 2
 95 694.343487492 95.5220513284 695 61 695 c 6
265 260 m 0
 265 166 302 82 373 82 c 0
 437 82 473 166 473 260 c 0
 473 354 437 438 373 438 c 0
 302 438 265 354 265 260 c 0
EndSplineSet
EndChar

StartChar: c
Encoding: 99 99 40
Width: 605
VWidth: 1155
Flags: HMW
LayerCount: 2
Fore
SplineSet
575 373 m 0
 575 305 520 260 471 260 c 0
 414 260 374 296 374 353 c 0
 374 399 417 406 417 428 c 0
 417 446 392 464 354 464 c 0
 269 464 230 384 230 270 c 0
 230 156 241 59 340 59 c 0
 394.609313509 59 434.942646842 84.54649084 461 143.455026175 c 0
 468.832260939 161.161621985 465.073716784 173 493 173 c 2
 525 173 l 6
 557.01171875 173 563.847956517 172.364471858 555.695538007 147.000003871 c 0
 525.291382253 52.4041199193 457.375346674 -20 328 -20 c 0
 117 -20 35 110 35 250 c 0
 35 400 133 540 344 540 c 0
 486 540 575 450 575 373 c 0
EndSplineSet
EndChar

StartChar: d
Encoding: 100 100 41
Width: 688
VWidth: 1155
Flags: HMW
LayerCount: 2
Fore
SplineSet
683 59 m 2
 683 31 l 2
 683 -0.928475735105 681.910874815 0 650 0 c 2
 461 0 l 2
 418.85808202 0 423 5.13140703679 423 46 c 0
 423 101.516566305 415.243164062 69.6064453125 399 46.4765625 c 4
 370.000976562 5.1845703125 329.543273055 -20 267 -20 c 0
 138 -20 35 80 35 260 c 0
 35 440 148 539 277 539 c 0
 329.654347744 539 367.387142447 521.289371626 394 491.179961735 c 4
 416.052359468 466.230234749 423 441.812908684 423 491 c 6
 423 663 l 2
 423 693.797983207 424.027595351 695 393 695 c 2
 369 695 l 2
 334.778988255 695 333 693.474313254 333 728 c 2
 333 750 l 2
 333 788.584113694 347.072250493 780 383 780 c 2
 550 780 l 2
 593.380779971 780 593 779.464810991 593 736 c 2
 593 121 l 2
 593 90.2406421687 588.950364859 85 621 85 c 2
 649 85 l 2
 677.754224589 85 683 88.9939088711 683 59 c 2
423 260 m 0
 423 354 386 438 315 438 c 0
 251 438 215 354 215 260 c 0
 215 166 251 82 315 82 c 0
 386 82 423 166 423 260 c 0
EndSplineSet
EndChar

StartChar: e
Encoding: 101 101 42
Width: 609
VWidth: 1155
Flags: HMW
LayerCount: 2
Fore
SplineSet
528 246 m 6
 254 246 l 2
 217.371716554 246 215.391121562 246.020321186 218.342249936 211.000006017 c 0
 225.709699072 123.572297677 252.394553562 69 325 69 c 0
 368.742026469 69 416.570983973 92.1592758658 445.999998863 139.60217128 c 0
 458.853186372 160.322961052 453.878585356 173 490 173 c 2
 528 173 l 6
 553.9976968 173 557.726941001 166.458822513 548.135640179 141.000003827 c 0
 513.611234852 49.3596109613 430.645520166 -20 313 -20 c 0
 132 -20 35 110 35 250 c 0
 35 410 139 540 320 540 c 0
 515.240761319 540 560.266087756 408.859540975 567.737668156 289.000003167 c 0
 570.331640123 247.387350373 559.953710477 246 528 246 c 6
394.926461246 366.99999763 m 4
 387.930270449 421.085884234 369.145680704 461 319 461 c 0
 267.981337526 461 239.901261117 424.715327496 226.410133172 371.000002882 c 0
 216.274274162 330.643780693 219.017577136 329 266 329 c 2
 354 329 l 2
 395.348372474 329 400.000767161 327.771745816 394.926461246 366.99999763 c 4
EndSplineSet
EndChar

StartChar: f
Encoding: 102 102 43
Width: 445
VWidth: 1155
Flags: HMW
LayerCount: 2
Fore
SplineSet
280 396 m 2
 280 128 l 2
 280 86.2309206882 278.964516182 85 321 85 c 2
 371 85 l 2
 399.902119624 85 400 84.9997523194 400 56 c 2
 400 24 l 2
 400 -6.5498091224 389.499721174 0 361 0 c 2
 67 0 l 2
 33.811772444 0 20 -8.39199293678 20 28 c 2
 20 58 l 2
 20 87.1853465234 22.6030265993 85 51 85 c 6
 81 85 l 2
 114.787201443 85 110 91.4635650209 110 124 c 2
 110 394 l 2
 110 431.012092492 113.341552763 435 75 435 c 2
 53 435 l 2
 23.9396812052 435 20 431.817979088 20 462 c 2
 20 500 l 2
 20 522.521190061 23.2043742055 520 45 520 c 2
 87 520 l 2
 120.134860495 520 110 542.354539382 110 572 c 0
 110 703 207 800 357 800 c 0
 488 800 580 751 580 664 c 0
 580 594 535 553 483 553 c 0
 421 553 383 591 383 646 c 0
 383 693 413 698 413 709 c 0
 413 717 401 725 379 725 c 0
 299 725 280 677 280 550 c 0
 280 514.515955792 287.52427442 520 321 520 c 2
 393 520 l 2
 417.946474692 520 420 521.780763635 420 496 c 2
 420 464 l 2
 420 434.066735958 418.908852659 435 389 435 c 2
 321 435 l 2
 281.225326822 435 280 436.03437367 280 396 c 2
EndSplineSet
EndChar

StartChar: g
Encoding: 103 103 44
Width: 697
VWidth: 1155
Flags: HMW
LayerCount: 2
Fore
SplineSet
225 345 m 0
 225 271 240 220 289 220 c 0
 338 220 353 271 353 345 c 0
 353 419 338 470 289 470 c 0
 240 470 225 419 225 345 c 0
50 345 m 0
 50 455 138 540 289 540 c 0
 347.664327498 540 396.819654987 527.170396813 434.999990953 505.029570071 c 0
 474.844580814 481.92364032 463.743185869 491.819350815 497.999995383 516.741774072 c 0
 519.219569307 532.179382249 544.44582343 540 573 540 c 0
 654 540 697 506 697 444 c 0
 697 395 664 364 624 364 c 0
 581 364 561 393 561 423 c 0
 561 457 590 463 590 472 c 0
 590 479 585 482 574 482 c 0
 559.164419818 482 540.117849088 472.174355387 524.000000715 452.969298217 c 0
 507.995844918 433.899710272 511.040102211 427.823305708 518.832199002 404.000003914 c 0
 524.888665697 385.483160793 528 365.683531292 528 345 c 0
 528 235 440 150 289 150 c 0
 275.489703777 150 262.483739405 150.680447737 250.0000131 151.998368295 c 0
 226.729757681 154.45503446 214.795345727 155.041586999 197.000000821 146.593867157 c 0
 180.996993482 138.996997113 170 130.069907605 170 121 c 0
 170 100 187 99 242 99 c 0
 267 99 385 100 413 100 c 0
 528 100 600 54 600 -62 c 0
 600 -203 460 -265 280 -265 c 0
 97 -265 5 -220 5 -135 c 0
 5 -89.3508919159 37.7133605788 -52.5092270646 75.9999986795 -27.1258972795 c 0
 114.849279145 -1.36954605899 109.928629198 -13.0741826551 81.9319175801 18 c 0
 66.3893416898 35.2510560789 57 56.9982351813 57 84 c 0
 57 112.165517238 74.384142322 138.158016686 102.260065476 158.99999818 c 0
 142.455530215 189.052926925 146.034371598 175.979538461 108.625362794 209.999997225 c 4
 70.4771941735 244.69266188 50 291.937638586 50 345 c 0
449 -97 m 0
 449 -53 415 -39 350 -39 c 0
 329 -39 278 -39 256 -39 c 0
 240.997006719 -39 225.466025001 -38.1385451816 210.000002269 -36.2766634927 c 0
 180.057590526 -32.6720374611 176.130016836 -34.3875493676 167.069622866 -59.9999973485 c 4
 162.356540955 -73.3232110701 160 -87.4259514395 160 -102 c 0
 160 -160 220 -183 296 -183 c 0
 380 -183 449 -159 449 -97 c 0
EndSplineSet
EndChar

StartChar: h
Encoding: 104 104 45
Width: 720
VWidth: 1155
Flags: HMW
LayerCount: 2
Fore
SplineSet
60 695 m 6
 40 695 l 2
 8.94886281838 695 5 691.775376022 5 724 c 2
 5 742 l 2
 5 778.217765375 3.47098251625 780 40 780 c 2
 228 780 l 2
 267.771449888 780 265 776.724110884 265 738 c 2
 265 492 l 2
 265 424.024161361 271.698972584 460.981289912 298 486.216613727 c 0
 331.633390815 518.487197488 379.82365166 540 448 540 c 0
 565 540 610 476 610 369 c 2
 610 120 l 2
 610 88.3297497356 607.200157178 85 640 85 c 2
 678 85 l 2
 703.396308592 85 700 80.4905093268 700 56 c 2
 700 28 l 2
 700 -0.935557686369 698.90773507 0 670 0 c 2
 400 0 l 2
 365.185441611 0 370 6.45391155459 370 40 c 2
 370 60 l 2
 370 84.374376648 369.480675452 85 394 85 c 2
 414 85 l 2
 441.706078965 85 440 86.9947130877 440 114 c 2
 440 353 l 2
 440 417 426 443 375 443 c 0
 307 443 265 386 265 283 c 2
 265 122 l 2
 265 87.7484258325 262.609935756 85 298 85 c 2
 310 85 l 2
 337.159473364 85 335 82.4091414176 335 56 c 2
 335 32 l 2
 335 0.647054104921 335.521419889 0 304 0 c 2
 40 0 l 2
 6.7775237559 0 5 -1.52387347254 5 32 c 2
 5 54 l 2
 5 82.310606376 2.70749888406 85 32 85 c 2
 56 85 l 2
 92.2302711367 85 95 82.5790280623 95 120 c 2
 95 664 l 2
 95 697.233589392 92.369053386 695 60 695 c 6
EndSplineSet
EndChar

StartChar: i
Encoding: 105 105 46
Width: 370
VWidth: 1155
Flags: HMW
LayerCount: 2
Fore
SplineSet
85 700 m 0
 85 752 130 795 185 795 c 0
 240 795 285 752 285 700 c 0
 285 648 240 605 185 605 c 0
 130 605 85 648 85 700 c 0
74 435 m 2
 46 435 l 2
 17.689393624 435 15 432.707498884 15 462 c 2
 15 494 l 2
 15 527.334621031 26.9424528709 520 58 520 c 2
 244 520 l 2
 280.527007289 520 275 512.47690768 275 478 c 2
 275 124 l 2
 275 93.328988026 269.177677768 85 302 85 c 2
 338 85 l 2
 364.908869995 85 365 84.9997694009 365 58 c 2
 365 28 l 2
 365 2.06394759794 366.79644627 0 340 0 c 2
 44 0 l 2
 21.2488589978 0 15 -4.35234873574 15 20 c 2
 15 50 l 2
 15 78.0730227656 10.0108758207 85 40 85 c 2
 72 85 l 2
 109.890750758 85 105 91.4316065491 105 128 c 2
 105 402 l 2
 105 433.795591107 106.028537146 435 74 435 c 2
EndSplineSet
EndChar

StartChar: j
Encoding: 106 106 47
Width: 370
VWidth: 1155
Flags: HMW
LayerCount: 2
Fore
SplineSet
90 700 m 0
 90 752 135 795 190 795 c 0
 245 795 290 752 290 700 c 0
 290 648 245 605 190 605 c 0
 135 605 90 648 90 700 c 0
52 520 m 2
 246 520 l 6
 277.282149436 520 280 522.342773438 280 481 c 6
 280 -32 l 2
 280 -163 183 -260 43 -260 c 0
 -78 -260 -150 -201 -150 -124 c 0
 -150 -64 -105 -23 -53 -23 c 0
 9 -23 47 -61 47 -116 c 0
 47 -163 27 -161 27 -172 c 0
 27 -180 33 -185 51 -185 c 0
 131 -185 110 -57 110 70 c 2
 110 411 l 2
 110 435.370117188 105.482261912 435 82 435 c 2
 46 435 l 2
 25.6286107022 435 20 434.480304099 20 460 c 2
 20 486 l 2
 20 518.793138955 18.9705781338 520 52 520 c 2
EndSplineSet
EndChar

StartChar: k
Encoding: 107 107 48
Width: 716
VWidth: 1155
Flags: HMW
LayerCount: 2
Fore
SplineSet
64 695 m 2
 34 695 l 2
 2.79002197335 695 5 697.616467469 5 728 c 2
 5 756 l 2
 5 782.592833605 8.20770607552 780 34 780 c 2
 232 780 l 2
 266.421052804 780 265 778.34842179 265 744 c 2
 265 334 l 2
 265 300.798445032 262.915591346 295.047509868 292 314.947368421 c 2
 426 406.631578947 l 2
 449.478189243 422.695603166 450.051242859 425 416 425 c 6
 392 425 l 2
 363.571469298 425 364 425.53799156 364 454 c 2
 364 496 l 2
 364 522.145983735 366.585345248 520 392 520 c 2
 648 520 l 2
 672.406810031 520 677 523.472687194 677 498 c 2
 677 454 l 2
 677 424.066735958 675.908852659 425 646 425 c 2
 624 425 l 2
 597.132742876 425 590.329456486 421.202016737 576 410.843373494 c 2
 468 332.771084337 l 2
 439.533927765 312.193200794 434.173744892 312.703215912 458.621621622 286 c 2
 616.094594595 114 l 2
 630.70698199 98.0396063873 634.003768405 85 666 85 c 2
 688 85 l 2
 713.132067858 85 711 82.4197257071 711 58 c 2
 711 26 l 2
 711 0.628610702189 711.519695901 0 686 0 c 2
 400 0 l 2
 369.240642169 0 364 -4.04963514128 364 28 c 2
 364 60 l 2
 364 80.152381908 360.481565227 85 382 85 c 2
 412 85 l 2
 447.923879113 85 415.930145939 104.98758704 404.812260536 118 c 2
 293.739463602 248 l 6
 269.137970221 276.793676109 265 287.034636229 265 242 c 2
 265 124 l 2
 265 96.6470066636 257.992144978 85 288 85 c 2
 300 85 l 2
 323.812409237 85 325 86.0188128262 325 62 c 2
 325 26 l 2
 325 -3.48893110005 320.510204001 0 292 0 c 2
 34 0 l 2
 8.28986776421 0 5 -2.68371726154 5 24 c 2
 5 46 l 2
 5 73.3529933364 -2.00785502234 85 28 85 c 2
 66 85 l 2
 98.9720288035 85 95 90.1333568572 95 122 c 2
 95 672 l 2
 95 698.824152445 89.8270608555 695 64 695 c 2
EndSplineSet
EndChar

StartChar: l
Encoding: 108 108 49
Width: 360
VWidth: 1155
Flags: HMW
LayerCount: 2
Fore
SplineSet
59 695 m 2
 35 695 l 2
 7.08545914166 695 5 693.172854745 5 722 c 2
 5 756 l 2
 5 783.025428073 8.84524904658 780 35 780 c 2
 220 780 l 6
 250.759765625 780 265 784.049635141 265 752 c 2
 265 118 l 2
 265 88.3146137112 262.237106036 85 293 85 c 2
 325 85 l 2
 352.914540858 85 355 86.8271452549 355 58 c 2
 355 22 l 2
 355 -3.99628741146 349.528100467 0 325 0 c 2
 53 0 l 2
 16.1504742457 0 5 -7.52253778345 5 32 c 2
 5 52 l 2
 5 84.3498068356 4.47835621486 85 37 85 c 2
 65 85 l 2
 95.4223266999 85 95 85.537450542 95 116 c 2
 95 662 l 2
 95 696.421052804 93.3484217897 695 59 695 c 2
EndSplineSet
EndChar

StartChar: m
Encoding: 109 109 50
Width: 1023
VWidth: 1155
Flags: HMW
LayerCount: 2
Fore
SplineSet
100 118 m 6
 100 416 l 2
 100 442.925399612 101.81189888 445 74 445 c 2
 52 445 l 2
 18.5773933798 445 20 446.653487995 20 480 c 2
 20 494 l 2
 20 523.063099199 23.8449198423 520 52 520 c 2
 232 520 l 2
 252.99487738 520 260 524.569085629 260 502 c 2
 260 480 l 6
 260 446.33902624 263.388844487 452.883864904 281.025215238 475.999997942 c 0
 310.183588685 514.218112615 355.267687369 540 424 540 c 0
 494.479511476 540 539.704906386 520.289469996 566.000000604 484.457602784 c 0
 600.669336429 437.214302293 580.574931124 450.632564169 620 491.04910101 c 0
 649.051383821 520.831073698 690.73442571 540 750 540 c 0
 877 540 922 476 922 369 c 2
 922 110 l 2
 922 76.7775237559 920.476126527 75 954 75 c 2
 976 75 l 2
 1001.80879804 75 1003 76.0218023911 1003 50 c 2
 1003 30 l 2
 1003 -1.4253719449 1001.3423222 0 970 0 c 2
 718 0 l 2
 689.585303559 0 679 -6.63375819116 679 24 c 2
 679 48 l 2
 679 77.1853465234 681.603026599 75 710 75 c 2
 726 75 l 2
 756.305684814 75 752 80.818243102 752 110 c 2
 752 358 l 2
 752 412 743 448 697 448 c 0
 629 448 596 386 596 283 c 2
 596 108 l 2
 596 79.5844288065 592.417227332 75 622 75 c 0
 651.757322216 75 657 79.0222494 657 48 c 2
 657 36 l 2
 657 -0.403356803082 656.463804085 0 620 0 c 2
 406 0 l 2
 374.321758825 0 366 -5.87875486945 366 28 c 2
 366 46 l 2
 366 75.4254379178 366.537711545 75 396 75 c 0
 427.425371945 75 426 76.6576778036 426 108 c 2
 426 358 l 2
 426 412 417 448 371 448 c 0
 293 448 270 386 270 283 c 2
 270 112 l 2
 270 78.3462948928 267.164569452 75 302 75 c 2
 318 75 l 2
 343.94194481 75 343 73.9038568929 343 48 c 2
 343 36 l 2
 343 -0.403356803082 342.463804085 0 306 0 c 2
 56 0 l 2
 29.8921198749 0 20 -6.1602615657 20 22 c 2
 20 42 l 2
 20 71.6853862888 17.2371060361 75 48 75 c 2
 68 75 l 2
 105.268706735 75 100 82.1088998697 100 118 c 6
EndSplineSet
EndChar

StartChar: n
Encoding: 110 110 51
Width: 735
VWidth: 1155
Flags: HMW
LayerCount: 2
Fore
SplineSet
110 128 m 2
 110 402 l 2
 110 433.225036907 111.519904831 435 80 435 c 2
 50 435 l 2
 22.0854591417 435 20 433.172854745 20 462 c 2
 20 496 l 2
 20 523.851646711 25.1631292437 520 52 520 c 2
 226 520 l 2
 258.773712794 520 270 527.254243172 270 492 c 2
 270 464 l 6
 270 423.490234375 282.296496691 451.562388241 300 472.396070988 c 0
 333.822336513 512.198578796 385.496959697 540 463 540 c 0
 580 540 625 476 625 369 c 2
 625 126 l 2
 625 88.9879075078 621.658447237 85 660 85 c 2
 678 85 l 2
 709.760429393 85 715 89.0761499417 715 56 c 2
 715 30 l 2
 715 -2.68247966888 711.76831844 0 680 0 c 2
 426 0 l 2
 389.607873165 0 385 -3.7655162871 385 34 c 2
 385 56 l 2
 385 82.3280468364 382.742216266 85 410 85 c 2
 426 85 l 2
 465.844687199 85 455 105.794095973 455 142 c 2
 455 353 l 2
 455 417 441 443 390 443 c 0
 322 443 280 386 280 283 c 2
 280 130 l 2
 280 96.9731953825 272.420614026 85 308 85 c 2
 322 85 l 2
 347.936052402 85 350 86.7964462697 350 60 c 2
 350 34 l 2
 350 -3.19098865627 346.131962388 0 310 0 c 2
 54 0 l 2
 20.1147563026 0 20 0.000290384098896 20 34 c 2
 20 56 l 2
 20 84.362263185 19.4793491593 85 48 85 c 2
 78 85 l 2
 115.268706735 85 110 92.1088998697 110 128 c 2
EndSplineSet
EndChar

StartChar: o
Encoding: 111 111 52
Width: 628
VWidth: 1155
Flags: HMW
LayerCount: 2
Fore
SplineSet
35 245 m 0
 35 405 123 540 314 540 c 0
 505 540 593 410 593 270 c 0
 593 110 505 -20 314 -20 c 0
 123 -20 35 105 35 245 c 0
220 270 m 0
 220 146 245 60 314 60 c 0
 383 60 408 146 408 250 c 0
 408 374 383 460 314 460 c 0
 245 460 220 374 220 270 c 0
EndSplineSet
EndChar

StartChar: p
Encoding: 112 112 53
Width: 688
VWidth: 1155
Flags: HMW
LayerCount: 2
Fore
SplineSet
63 435 m 2
 32 435 l 2
 -1.06733787504 435 5 443.956757802 5 475 c 2
 5 494 l 2
 5 523.4889311 9.48979599866 520 38 520 c 2
 238 520 l 2
 259.454129355 520 265 523.937575353 265 501 c 2
 265 473 l 2
 265 433.436316575 274.125976562 440.524414062 295 467.447265625 c 4
 326.151367188 507.623046875 369.225892285 539 431 539 c 0
 560 539 653 440 653 260 c 0
 653 80 550 -20 421 -20 c 0
 368.433522155 -20 329.348949422 -2.2094448012 300.999999566 27.9827344199 c 0
 277.757222707 52.7367407618 265 104.098583528 265 37 c 2
 265 -121 l 2
 265 -153.773712794 257.745756828 -165 293 -165 c 2
 320 -165 l 2
 352.272164161 -165 355 -162.641554307 355 -196 c 2
 355 -218 l 2
 355 -250.41605574 354.463021481 -250 322 -250 c 2
 42 -250 l 2
 10.2395706066 -250 5 -254.076149942 5 -221 c 2
 5 -194 l 2
 5 -160.615404227 10.7928636437 -165 43 -165 c 2
 67 -165 l 2
 98.9498864904 -165 95 -159.862850461 95 -129 c 2
 95 405 l 2
 95 435.930901249 93.9098969295 435 63 435 c 2
265 260 m 0
 265 166 302 82 373 82 c 0
 437 82 473 166 473 260 c 0
 473 354 437 438 373 438 c 0
 302 438 265 354 265 260 c 0
EndSplineSet
EndChar

StartChar: q
Encoding: 113 113 54
Width: 688
VWidth: 1155
Flags: HMW
LayerCount: 2
Fore
SplineSet
683 496 m 2
 683 466 l 2
 683 438.933113182 686.13697831 435 658 435 c 2
 632 435 l 2
 598.239984253 435 593 439.126855563 593 404 c 2
 593 -122 l 2
 593 -161.597727648 590.063997209 -165 631 -165 c 2
 651 -165 l 2
 682.352945895 -165 683 -164.478580111 683 -196 c 2
 683 -214 l 2
 683 -249.878493327 682.999692534 -250 647 -250 c 2
 371 -250 l 2
 334.217172121 -250 333 -251.032481795 333 -214 c 2
 333 -196 l 2
 333 -165.643930597 332.478819176 -165 363 -165 c 2
 395 -165 l 2
 428.394364974 -165 423 -157.469360861 423 -126 c 2
 423 40 l 2
 423 96.652586535 414.038085938 75.587890625 395 47.916015625 c 4
 366.00390625 5.7705078125 330.266360162 -20 267 -20 c 0
 138 -20 35 80 35 260 c 0
 35 440 148 539 277 539 c 0
 329.277329324 539 366.700195312 510.775390625 394 476.807617188 c 0
 420.004882812 444.451171875 423 438.155633377 423 494 c 0
 423 520.434652664 423.538617281 520 450 520 c 2
 653 520 l 2
 679.069006042 520 683 523.11337849 683 496 c 2
423 260 m 0
 423 354 386 438 315 438 c 0
 251 438 215 354 215 260 c 0
 215 166 251 82 315 82 c 0
 386 82 423 166 423 260 c 0
EndSplineSet
EndChar

StartChar: r
Encoding: 114 114 55
Width: 553
VWidth: 1155
Flags: HMW
LayerCount: 2
Fore
SplineSet
310 0 m 2
 34 0 l 2
 3.32198855204 0 0 -2.78155432328 0 29 c 2
 0 55 l 2
 0 85.9309012495 1.09010307047 85 32 85 c 2
 64 85 l 2
 97.7841443836 85 90 98.0254987614 90 129 c 2
 90 409 l 2
 90 438.902887327 84.852242715 435 56 435 c 2
 34 435 l 2
 -0.920876189528 435 0 436.086532483 0 471 c 2
 0 495 l 6
 -1.37572604851e-15 517.467311383 4.49301024331 520 32 520 c 2
 226 520 l 2
 258.223821785 520 260 521.521949628 260 489 c 0
 260 418.325368265 269.607914079 451.988928639 288 484.454280908 c 0
 306.762569693 517.573603923 352.426023448 540 405 540 c 0
 499 540 548 484 548 406 c 0
 548 354 511 310 446 310 c 0
 392 310 355 340 355 381 c 0
 355 428 375 434 375 446 c 0
 375 451 371 456 360 456 c 0
 332 456 260 366 260 263 c 2
 260 143 l 2
 260 94.186379938 253.054625612 85 304 85 c 2
 324 85 l 2
 350.93990712 85 350 83.9052470168 350 57 c 2
 350 37 l 2
 350 -1.4139016989 348.35505355 0 310 0 c 2
EndSplineSet
EndChar

StartChar: s
Encoding: 115 115 56
Width: 530
VWidth: 1155
Flags: HMW
LayerCount: 2
Fore
SplineSet
394.204697658 374.999975735 m 0
 368.983747612 428.488221327 314.593785742 456 273 456 c 0
 230 456 195 443 195 416 c 0
 195 306 510 355 510 147 c 0
 510 23 410 -22 293 -22 c 0
 237.709771264 -22 190.686198541 -3.44594983714 155.00000479 19.9620019061 c 0
 135.24728572 32.9185726744 135.184889476 39.2588452663 120.714285714 19 c 2
 115.714285714 12 l 2
 104.156612951 -4.18074186838 103.39234986 -10 74 -10 c 2
 43 -10 l 2
 15.2145816567 -10 20 -3.13701739027 20 23 c 2
 20 181 l 2
 20 206.396308592 24.5094906732 203 49 203 c 2
 85 203 l 2
 112.312893674 203 107.413477496 190.528801616 114.999999068 172.163005271 c 4
 142.0610326 106.65242495 199.045149935 65 253 65 c 0
 313 65 347 77 347 118 c 0
 347 235 37 179 37 385 c 0
 37 489 137 542 232 542 c 0
 283.1419547 542 320.824607048 529.227396747 348.000000212 511.825757603 c 0
 378.263142089 492.446892646 377.454767068 470.889268095 397.974025974 506 c 0
 410.461068373 527.366716994 412.99308179 530 448 530 c 2
 466 530 l 2
 496.928935949 530 492 523.156245751 492 494 c 2
 492 364 l 2
 492 335.245775411 495.993908871 330 466 330 c 2
 435 330 l 2
 395.911430712 330 406.163031989 349.63890399 394.204697658 374.999975735 c 0
EndSplineSet
EndChar

StartChar: t
Encoding: 116 116 57
Width: 448
VWidth: 1155
Flags: HMW
LayerCount: 2
Fore
SplineSet
412 80.857659595 m 4
 386.359406765 29.6269266505 340.213496548 -17 243 -17 c 0
 166 -17 93 17 93 106 c 2
 93 411 l 2
 93 438.444739655 88.502720357 435 62 435 c 2
 25 435 l 2
 -0.941944810281 435 0 436.096143107 0 462 c 2
 0 496 l 2
 0 523.061450825 3.70245670914 519.474656073 28.9999957481 520.376522967 c 0
 96.6712576203 522.789029205 152.739425967 540.447227569 181.706438247 668.000000001 c 0
 186.670699108 689.859528688 181.808700489 700 211 700 c 2
 237 700 l 2
 265.172581414 700 263 697.403233834 263 670 c 2
 263 550 l 2
 263 518.574628055 264.657677804 520 296 520 c 2
 361 520 l 2
 386.710132236 520 390 522.683717262 390 496 c 2
 390 473 l 2
 390 439.594374615 393.701355743 435 359 435 c 2
 297 435 l 2
 266.943977428 435 263 429.203598756 263 407 c 2
 263 124 l 2
 263 104 275 85 299 85 c 0
 312.895518293 85 331.135458731 98.9986935762 344.999999469 116.599370069 c 0
 359.078987852 134.47228231 355.130582081 143.705232177 377 131.555555556 c 2
 398 119.888888889 l 2
 420.951926406 107.137818664 424.765591156 106.36372279 412 80.857659595 c 4
EndSplineSet
EndChar

StartChar: u
Encoding: 117 117 58
Width: 735
VWidth: 1155
Flags: HMW
LayerCount: 2
Fore
SplineSet
455 237 m 2
 455 400 l 2
 455 433.790632088 456.030254502 435 422 435 c 2
 412 435 l 2
 385.0390625 435 385 441.82858195 385 476 c 2
 385 492 l 2
 385 520.428530702 388.538085938 520 417 520 c 2
 572 520 l 2
 614.610961529 520 625 527.509884133 625 482 c 2
 625 130 l 2
 625 94.7214349885 618.236118994 85 656 85 c 2
 682 85 l 2
 712.291901229 85 715 87.3259816357 715 56 c 2
 715 28 l 2
 715 -1.72752650411 712.988630184 0 684 0 c 2
 510 0 l 2
 474.006813356 0 465 -6.45937083176 465 32 c 2
 465 58 l 2
 465 104.843020398 450.76953125 75.1884765625 437 53.73828125 c 4
 407.479492188 7.751953125 353.426194747 -20 272 -20 c 0
 155 -20 110 44 110 151 c 2
 110 406 l 2
 110 435.425437918 109.462288455 435 80 435 c 2
 44 435 l 2
 18.3161991861 435 20 436.978888134 20 462 c 2
 20 484 l 2
 20 523.218975603 23.8780178724 520 62 520 c 2
 230 520 l 2
 268.875391047 520 280 527.645808293 280 486 c 2
 280 167 l 2
 280 103 294 77 345 77 c 0
 413 77 455 134 455 237 c 2
EndSplineSet
EndChar

StartChar: v
Encoding: 118 118 59
Width: 629
VWidth: 1155
Flags: HMW
LayerCount: 2
Fore
SplineSet
385.158878505 258 m 2
 440.112149533 398 l 2
 452.532418452 429.642113675 462.021296814 435 415 435 c 0
 383.709744738 435 390 444.725369733 390 474 c 2
 390 488 l 2
 390 526.324018642 398.905703767 520 435 520 c 2
 591 520 l 2
 620.054377974 520 634 527.962287638 634 496 c 2
 634 474 l 2
 634 440.239984253 638.126855563 435 603 435 c 2
 587 435 l 2
 543.560805687 435 546.089310259 425.376277222 534.009345794 396 c 2
 375.280373832 10 l 2
 368.127124385 -7.39540206279 370.129415676 -15 344 -15 c 2
 302 -15 l 2
 274.735617897 -15 275.767071194 -9.98060121425 267.768224299 8 c 6
 89.8242990654 408 l 2
 79.2566259741 431.755063462 78.7352945762 435 43 435 c 2
 17 435 l 2
 -9.37082453815 435 -5 441.166453623 -5 466 c 2
 -5 490 l 2
 -5 523.993369333 0.130450978152 520 33 520 c 2
 283 520 l 2
 317.481273899 520 336 530.045736719 336 492 c 2
 336 470 l 2
 336 438.948862818 339.224623978 435 307 435 c 2
 293 435 l 2
 264.452294954 435 276.089026181 425.649604754 282.84 408 c 2
 324.915 298 l 2
 332.72875876 277.571872524 339.669877394 257.448894622 346.299083564 235 c 0
 364.50770258 173.339016919 365.75960437 208.578039704 385.158878505 258 c 2
EndSplineSet
EndChar

StartChar: w
Encoding: 119 119 60
Width: 925
VWidth: 1155
Flags: HMW
LayerCount: 2
Fore
SplineSet
343.284179688 240 m 0
 352.27734375 264.37109375 356.185833437 275.659484389 367.018867925 303 c 2
 438.735849057 484 l 2
 446.383039431 503.300051897 444.237289114 520 473 520 c 2
 539 520 l 2
 559.243684456 520 557.706000273 513.496629177 563.32183908 500 c 2
 641.963218391 311 l 2
 650.35772996 290.825345125 658.255887079 270.804463535 665.513989529 249 c 0
 681.632531612 200.577403938 680.579076219 197.491720014 694.223362416 250 c 0
 699.895911559 271.830075561 706.037517153 292.528729949 712.603773585 313 c 2
 744.679245283 413 l 2
 751.29412216 433.622851439 754.292783997 435 726 435 c 2
 688 435 l 2
 665.553436494 435 666 435.540213753 666 458 c 2
 666 496 l 2
 666 520.943876698 667.097646385 520 692 520 c 2
 904 520 l 2
 925.153201096 520 930 523.568933728 930 501 c 2
 930 451 l 2
 930 432.566871833 926.780988086 435 909 435 c 2
 881 435 l 2
 853.406422126 435 852.793160798 433.585983949 846.073584906 413 c 2
 722.362264151 34 l 2
 712.446896719 3.62344081619 716.986615578 -10 674 -10 c 2
 636 -10 l 2
 590.153112369 -10 593.615216037 3.25255164134 581.121896163 34 c 2
 514.079006772 199 l 2
 503.668046042 224.622531131 494.919921875 250.514648438 485.770507812 278 c 0
 469.756835938 326.106445312 467.939453125 323.424804688 452.244140625 276 c 0
 442.924804688 247.841796875 434.962127768 221.314214633 424.386792453 195 c 2
 354.860377358 22 l 2
 345.585369691 -1.07865757609 348.02752881 -10 314 -10 c 2
 262 -10 l 2
 222.565669996 -10 227.040015436 8.25891224764 217.98490566 36 c 6
 96.2320754717 409 l 2
 87.965739985 434.324611607 86.1164959043 435 52 435 c 2
 24 435 l 2
 -8.54893082962 435 -5 439.485493353 -5 471 c 2
 -5 497 l 2
 -5 525.827070125 4.036072911 520 31 520 c 2
 315 520 l 2
 344.800309199 520 346 521.026590829 346 491 c 2
 346 463 l 2
 346 432.345634408 342.778166145 435 313 435 c 2
 288 435 l 2
 259.880158254 435 259.066080497 436.139215983 265.683516484 414 c 2
 298.263736264 305 l 2
 304.173451431 285.228526463 308.842331343 264.952337994 314.959805803 245 c 0
 323.222983266 218.049383251 330 204 343.284179688 240 c 0
EndSplineSet
EndChar

StartChar: x
Encoding: 120 120 61
Width: 664
VWidth: 1155
Flags: HMW
LayerCount: 2
Fore
SplineSet
398 376.62109375 m 2
 436 410.01953125 l 2
 453.237468693 425.169650218 478.916375821 435 434 435 c 0
 410.043362109 435 408 433.235176619 408 458 c 2
 408 494 l 2
 408 524.928935949 414.843754249 520 444 520 c 2
 618 520 l 2
 636.371218404 520 652 526.669935105 652 506 c 2
 652 474 l 2
 652 440.899035506 656.514527226 435 622 435 c 2
 604 435 l 2
 579.611227576 435 576.178973194 429.727613159 564 419.0234375 c 2
 454 322.34375 l 2
 428.3377964 299.789078867 415.935337092 298.154642918 439.36 270 c 2
 567.488 116 l 2
 584.451117537 95.6116375756 586.306147051 85 626 85 c 2
 648 85 l 2
 673.679953481 85 669 78.1135537848 669 54 c 2
 669 30 l 2
 669 -0.422326699929 668.462549458 0 638 0 c 2
 368 0 l 2
 336.329749736 0 333 -2.79984282189 333 30 c 2
 333 56 l 2
 333 84.9021196243 333.000247681 85 362 85 c 0
 403.005352289 85 375.94280095 99.8283642433 362.488 116 c 6
 325.88 160 l 2
 305.327179792 184.702908904 305.13176515 191.502527964 280 169.4140625 c 2
 216 113.1640625 l 2
 197.828394046 97.1929244541 167.193168164 85 216 85 c 2
 234 85 l 2
 257.758680881 85 264 89.4090661521 264 64 c 2
 264 34 l 2
 264 -0.920876189528 262.913467517 0 228 0 c 2
 32 0 l 2
 2.62627184433 0 -5 -5.40729952949 -5 26 c 2
 -5 60 l 2
 -5 82.3577915161 -7.18338406623 85 16 85 c 2
 38 85 l 2
 71.0736077764 85 75.4885526342 93.1637669637 92 107.67578125 c 2
 224 223.69140625 l 2
 255.407208334 251.29539795 248.720480978 252.739806517 222.712 284 c 2
 119.544 408 l 2
 105.166281122 425.280912113 103.537171536 435 70 435 c 2
 48 435 l 2
 16.5746280551 435 18 436.657677804 18 468 c 2
 18 498 l 2
 18 526.084062896 27.8138501215 520 54 520 c 2
 332 520 l 2
 364.409022038 520 369 523.678938695 369 490 c 2
 369 470 l 2
 369 444.926076914 375.079728143 435 348 435 c 2
 332 435 l 2
 298.240225111 435 303.125117951 433.743848617 317.888 416 c 2
 349.504 378 l 2
 371.746747907 351.265927996 372.022768809 353.789542898 398 376.62109375 c 2
EndSplineSet
EndChar

StartChar: y
Encoding: 121 121 62
Width: 665
VWidth: 1155
Flags: HMW
LayerCount: 2
Fore
SplineSet
163 -265 m 0
 46 -265 -5 -175 -5 -108 c 0
 -5 -42 30 17 101 17 c 0
 171 17 196 -26 196 -67 c 0
 196 -145 118 -140 118 -156 c 0
 118 -169 130 -185 163 -185 c 0
 202 -185 257.92578125 -180.27734375 305 -60 c 0
 312.935969875 -39.7230725664 305.495946596 -30.7483901531 296.662273476 -12 c 6
 99.7133443163 406 l 2
 91.5626653276 423.298818693 93.1242160058 435 66 435 c 2
 36 435 l 2
 6.80339585024 435 12 442.56322192 12 470 c 2
 12 500 l 2
 12 528.126105288 28.7540963493 520 54 520 c 2
 306 520 l 2
 335.373728156 520 343 525.407299529 343 494 c 2
 343 466 l 2
 343 440.262639525 346.902140266 435 320 435 c 2
 288 435 l 2
 254.964729798 435 268.396675961 425.375534812 277.077922078 406 c 2
 346.974025974 250 l 2
 357.037753479 227.538927018 366.119744894 204.968943186 374.457922656 180 c 0
 388.958944341 136.576221219 388.001188142 130.989792776 401.941731837 178 c 0
 409.851990521 204.674920866 418.386994277 229.711262911 427.893103448 254 c 2
 488.165517241 408 l 2
 497.589659123 432.079305247 503.329181524 435 468 435 c 2
 446 435 l 2
 421.047816878 435 425 440.474296067 425 464 c 2
 425 499 l 2
 425 527.259745137 438.228713548 520 464 520 c 2
 644 520 l 2
 671.706078965 520 670 518.005286912 670 491 c 2
 670 464 l 2
 670 438.289867764 672.683717262 435 646 435 c 2
 624 435 l 2
 590.433381978 435 590.760345399 431.258845499 581.524115756 408 c 2
 379 -102 l 2
 327.118164062 -232.649414062 221 -265 163 -265 c 0
EndSplineSet
EndChar

StartChar: z
Encoding: 122 122 63
Width: 570
VWidth: 1155
Flags: HMW
LayerCount: 2
Fore
SplineSet
271 440 m 2
 167.74071103 440 140.760875978 397.699575555 134.624280126 331.000004334 c 0
 132.550839072 308.463465739 141.930468526 288 114 288 c 2
 81 288 l 2
 50.8021977192 288 53 290.609604075 53 320 c 2
 53 478 l 2
 53 510.974836459 46.7068544944 520 82 520 c 2
 480 520 l 2
 506.838530558 520 534 523.315900722 534 500 c 6
 534 474 l 2
 534 446.524780309 532.15967155 437.834907706 520.4 424 c 2
 262 120 l 6
 231.18771579 83.750253871 219.250264479 80 269 80 c 6
 294 80 l 2
 427.98767899 80 451.479321601 129.84783596 454.588363811 224.999973294 c 0
 455.282120506 246.232374763 450.08238648 254 474 254 c 2
 513 254 l 2
 535.446563506 254 535 253.459786247 535 231 c 2
 535 27 l 2
 535 1.19120196172 536.021802391 0 510 0 c 2
 77 0 l 2
 44.6140713225 0 30 -8.57485812849 30 27 c 2
 30 52 l 2
 30 86.6336624483 40.0628627097 91.5004145254 55.375 109 c 2
 324.875 417 l 2
 340.678104594 435.060690965 353.548509323 440 314 440 c 6
 271 440 l 2
EndSplineSet
EndChar

StartChar: comma
Encoding: 44 44 65
Width: 305
Flags: HMW
LayerCount: 2
Fore
SplineSet
40 84 m 0
 40 137 79 183 147 183 c 0
 211 183 262 142 262 49 c 0
 262 -77.0008501318 169.658753946 -142.250880491 71.0000030396 -154.040238637 c 0
 50.0313699304 -156.54591323 38 -155.490315806 38 -138 c 6
 38 -108 l 2
 38 -78.4257316251 47.7353912231 -87.2179736482 73.999998713 -83.178369159 c 4
 115.949651696 -76.7263402615 164.093525334 -58.0699213965 180.999999521 -15.8061668076 c 4
 191.937327889 11.5355814999 186.530852639 3.46852051206 165 -6.73953513363 c 0
 154.756968822 -11.5958886648 140.021996717 -15.0000000313 118 -15 c 0
 65 -15 40 31 40 84 c 0
EndSplineSet
EndChar

StartChar: exclam
Encoding: 33 33 67
Width: 359
Flags: HMW
LayerCount: 2
Fore
SplineSet
288 634 m 0
 277.610484858 467.767757728 219.94057865 422.858783096 213.571378548 292 c 0
 212.674614222 273.575474689 216.826593695 268 196 268 c 2
 160 268 l 2
 141.069095598 268 145.257706836 274.200125895 144.476215543 291 c 4
 138.353038438 422.631158941 80.4159358758 467.345025986 70 634 c 0
 70 641 70 647 70 653 c 0
 70 729 122 768 179 768 c 0
 236 768 289 729 289 653 c 0
 289 647 288 641 288 634 c 0
EndSplineSet
Refer: 1 46 N 1 0 0 1 40 0 2
EndChar

StartChar: quotesingle
Encoding: 39 39 70
Width: 259
Flags: HMW
LayerCount: 2
Fore
SplineSet
218 664 m 0
 207.683288799 603.037615633 163.061233219 580.778696719 157.557449632 504 c 0
 156.39115659 487.730018035 156.542218694 488 139 488 c 2
 116 488 l 2
 99.6210379294 488 99.5206848324 487.585230246 98.5312510913 503 c 4
 93.5511611114 580.586741989 50.3613634455 602.773761458 40 664 c 0
 38.8201606249 670.971778125 39 676 39 682 c 0
 39 726 75 768 129 768 c 0
 183 768 219 726 219 682 c 0
 219 676 219.179839375 670.971778125 218 664 c 0
EndSplineSet
EndChar

StartChar: question
Encoding: 63 63 75
Width: 590
Flags: HMW
LayerCount: 2
Fore
SplineSet
194 662 m 0
 194 642 244 621 244 550 c 0
 244 498 202 460 147 460 c 0
 92 460 45 503 45 571 c 0
 45 663 129 770 301 770 c 0
 492 770 570 690 570 570 c 0
 570 465.463032297 500.846391645 403.613477158 408.000003996 373.295302913 c 0
 376.808189046 363.109889084 367 369.454875159 367 326 c 2
 367 286 l 2
 367 250.219668858 368.025882084 249.01171875 332 249.01171875 c 2
 234 249.01171875 l 2
 202.030873289 249.01171875 207 255.844429874 207 286 c 2
 207 350 l 2
 207 397.39295626 219.616506982 391.640969882 251.999995184 403.881440369 c 4
 334.720280343 435.148461477 389 481.891872907 389 570 c 0
 389 644 370 698 281 698 c 0
 227 698 194 674 194 662 c 0
EndSplineSet
Refer: 1 46 N 1 0 0 1 149 0 2
EndChar

StartChar: parenleft
Encoding: 40 40 76
Width: 485
Flags: HMW
LayerCount: 2
Fore
SplineSet
467.285714286 -118 m 6
 457.857142857 -140 l 2
 443.596568948 -173.274672456 437.155301816 -169.589826451 400.367569254 -158.000004798 c 0
 200.083308433 -94.9012840835 55 79.8644837573 55 325 c 0
 55 563.351840019 192.164584423 718.74785353 383.868793678 782.999981476 c 0
 415.596451715 793.633913572 440.774629553 809.859197709 454.428571429 778 c 2
 461.285714286 762 l 2
 477.340087409 724.539796046 468.138139366 729.752820941 434.165410805 713 c 0
 315.779423557 654.620843238 250 534.069416481 250 325 c 0
 250 110.62028638 319.163413915 -27.7650588642 443.287911411 -86.9999623256 c 0
 464.480646174 -97.1135951949 477.668484579 -93.7735359825 467.285714286 -118 c 6
EndSplineSet
EndChar

StartChar: asterisk
Encoding: 42 42 78
Width: 635
VWidth: 1155
Flags: HMW
LayerCount: 2
Fore
SplineSet
515.750976562 537.75390625 m 0
 473.167268358 523.348398093 432.604184882 548.741016411 372 527.245238046 c 0
 354.221024497 520.939189748 354.063588778 519.116651721 372 512.754761743 c 0
 432.604178134 491.258983755 473.167185743 516.65160186 515.75 502.24609375 c 0
 522.448242188 499.98046875 526.642578125 497.112304688 531.838867188 494.112304688 c 0
 569.944335938 472.112304688 583.986328125 422.435546875 559.486328125 380 c 0
 534.986328125 337.564453125 484.944335938 324.887695312 446.838867188 346.887695312 c 0
 441.642578125 349.887695312 437.061523438 352.0859375 431.75 356.75390625 c 0
 398.191391855 386.245934864 399.702049156 431.957589646 352.059879261 472.999998332 c 0
 342.937988877 480.858254032 335.639676035 481.430942717 338.014857096 470 c 0
 351.497398366 405.113091173 392.022416385 383.886097801 401 339 c 0
 402.38671875 332.06640625 402 327 402 321 c 0
 402 277 366 240 317 240 c 0
 268 240 232 277 232 321 c 0
 232 327 231.61328125 332.06640625 233 339 c 0
 241.792144234 382.958938494 283.884454809 403.670729201 295.304105233 466 c 0
 300.240858648 492.945154102 288.670373478 479.843338577 277.223652705 470.000001678 c 0
 230.412149595 429.745556318 234.992148358 385.529270618 202.249023438 356.75390625 c 0
 196.9375 352.0859375 192.357421875 349.887695312 187.161132812 346.887695312 c 0
 149.055664062 324.887695312 99.0126953125 337.564453125 74.5126953125 380 c 0
 50.0126953125 422.435546875 64.0556640625 472.112304688 102.161132812 494.112304688 c 0
 107.357421875 497.112304688 111.55078125 499.98046875 118.249023438 502.24609375 c 0
 161.066523971 516.730690775 201.841151675 490.978963772 263 513.113063483 c 0
 283.584642143 520.562885285 275.373601012 522.945601857 258 528.606248556 c 0
 199.596922772 547.635072003 159.889001045 523.667649736 118.249023438 537.75390625 c 0
 111.55078125 540.01953125 107.357421875 542.887695312 102.161132812 545.887695312 c 0
 64.0556640625 567.887695312 50.0126953125 617.564453125 74.5126953125 660 c 0
 99.0126953125 702.435546875 149.055664062 715.112304688 187.161132812 693.112304688 c 0
 192.357421875 690.112304688 196.9375 687.9140625 202.249023438 683.24609375 c 0
 234.992147448 654.470730181 234.350453766 610.254446139 278.5527962 570.000001678 c 0
 297.455446068 552.78562734 300.30142348 557.23164859 292.611514493 586 c 0
 278.38762042 639.212331096 241.202414443 659.989590886 233 701 c 0
 231.61328125 707.93359375 232 713 232 719 c 0
 232 763 268 800 317 800 c 0
 366 800 402 763 402 719 c 0
 402 713 402.38671875 707.93359375 401 701 c 0
 392.901140336 660.507343783 356.546680128 639.740178272 341.938086613 588 c 0
 334.090793812 560.206747483 334.755305845 551.156185725 355.447200116 569.999998322 c 0
 399.64954627 610.254443682 399.007851642 654.470729382 431.750976562 683.24609375 c 0
 437.0625 687.9140625 441.642578125 690.112304688 446.838867188 693.112304688 c 0
 484.944335938 715.112304688 534.987304688 702.435546875 559.487304688 660 c 0
 583.987304688 617.564453125 569.944335938 567.887695312 531.838867188 545.887695312 c 0
 526.642578125 542.887695312 522.44921875 540.01953125 515.750976562 537.75390625 c 0
EndSplineSet
EndChar

StartChar: at
Encoding: 64 64 79
Width: 1100
VWidth: 1155
Flags: HMW
LayerCount: 2
Fore
SplineSet
644 346 m 0
 644 387.927734375 640 458 594 458 c 0
 550 458 495 324 495 220 c 0
 495 173.072265625 500 142 534 142 c 0
 595 142 644 268 644 346 c 0
846.000011717 -94.6121611009 m 0
 762.092469324 -179.275412543 640.167734407 -224 489 -224 c 0
 306 -224 45 -112 45 221 c 0
 45 554 292 800 605 800 c 0
 898 800 1050 624 1050 401 c 0
 1050 231 942 65 761 65 c 0
 705.332491201 65 663.576863596 91.2428667972 640.000002962 125.238762019 c 0
 616.233886982 159.507547896 623.329186544 143.014929908 598.000007846 115.766481321 c 0
 568.075346627 83.5743363475 529.743004803 65 484 65 c 0
 375 65 324 125.583984375 324 210 c 0
 324 380 409 534 568 534 c 0
 627.415748862 534 653.308484016 513.083931618 664.542514425 478.000002938 c 0
 680.106085402 429.394899139 672.635699362 436.625927807 684.103225806 486 c 0
 692.527985131 522.273269315 697.880123809 520 742 520 c 2
 813 520 l 2
 866.471973007 520 861.331979896 517.123802332 851.548387097 475 c 6
 790 210 l 2
 788 197 775 160 808 160 c 0
 859 160 957 241 957 405 c 0
 957 612 806 712 622 712 c 0
 408 712 230 503 230 231 c 0
 230 -71 411 -129 525 -129 c 0
 610.699058246 -129 698.891663998 -115.701079974 781.999991975 -39.0895930828 c 0
 800.780765387 -21.7769721806 807.865234375 -16.865234375 828 -37 c 2
 842 -51 l 2
 862.321954914 -71.3219549138 867.495757218 -72.9228152515 846.000011717 -94.6121611009 c 0
EndSplineSet
EndChar

StartChar: dollar
Encoding: 36 36 80
Width: 660
Flags: HMW
LayerCount: 2
Fore
SplineSet
346 835 m 6
 382 835 l 2
 407.114776316 835 404.861556859 832.877205177 403.369565217 810 c 2
 401.934782609 788 l 2
 400.106140369 759.960818985 400.56631226 760.695910779 425.999996231 756.183874522 c 0
 533.390512511 737.132371656 624 685.019640967 624 579 c 0
 624 511 579 483 530 483 c 0
 483 483 443 514 443 571 c 0
 443 617 480 617 480 640 c 0
 480 660.226212599 462.488004353 673.642204668 420 679.908702887 c 0
 393.295120197 683.847369442 394.82059141 678.915734951 393.065217391 652 c 2
 383.673913043 508 l 2
 381.348003326 472.336051005 381.203821209 470.801904375 409.999996902 461.583517498 c 0
 525.5974724 424.577830962 650 370.970702139 650 205 c 0
 650 78.7437387447 536.951558808 1.28536577364 382.000006948 -12.7059785993 c 0
 353.390708194 -15.289254122 349.766264999 -11.9172700145 347.804347826 -42 c 2
 346.630434783 -60 l 2
 344.660830757 -90.2005950625 336.438311336 -85 306 -85 c 2
 274 -85 l 2
 253.828853749 -85 249.811437294 -87.8912948307 251.108695652 -68 c 2
 253.326086957 -34 l 2
 255.276982155 -4.08627362344 242.990574079 -10.4012296576 218.000009622 -6.05674580675 c 0
 86.6739207498 16.7736337663 6 82.7939992103 6 186 c 0
 6 264 61 292 100 292 c 0
 157 292 197 261 197 204 c 0
 197 158 150 143 150 120 c 0
 150 99.4335060056 168.106188238 75.8493139715 230 63.8715745471 c 0
 258.915416791 58.275840211 259.487211786 60.4705807246 261.543478261 92 c 2
 273.934782609 282 l 2
 276.712386641 324.589928496 270.204743747 321.061366637 236.000003075 331.175759108 c 0
 135.192622593 360.984650804 40 407.55255241 40 544 c 0
 40 668.249932205 165.237207082 746.028196373 277.999997059 761.955829397 c 0
 302.137879769 765.365281556 305.233024323 761.906372952 306.934782609 788 c 2
 308.369565217 810 l 2
 310.258045573 838.956698782 316.143180478 835 346 835 c 6
262.000006444 666.433221498 m 4
 231.973226264 650.294952128 216 622.803823687 216 583 c 0
 216 555.471926174 230.617020635 535.757559231 254.486016262 520 c 0
 287.08408198 498.479783591 288.373740937 503.39736103 291.413043478 550 c 2
 297.673913043 646 l 2
 300.26702557 685.761058742 289.319754408 681.116562474 262.000006444 666.433221498 c 4
400.000000001 67.4024275479 m 4
 467.518238478 93.8162690907 470 159.280465196 470 190 c 0
 470 233.803249651 444.535444062 260.077409633 406.000002198 278.939173373 c 0
 387.28093467 288.10150841 370.374731784 304.079220685 368.282608696 272 c 2
 356.02173913 84 l 2
 353.583337435 46.6111740036 375.387011796 57.7735689608 400.000000001 67.4024275479 c 4
EndSplineSet
EndChar

StartChar: numbersign
Encoding: 35 35 81
Width: 660
Flags: HMW
LayerCount: 2
Fore
SplineSet
239 805 m 6
 285 805 l 2
 305.134952482 805 305.015429588 805.132694456 302.906976744 787 c 2
 278.488372093 577 l 2
 275.478659757 551.116473914 273.818188255 550 303 550 c 2
 388 550 l 2
 413.74318681 550 410.88979843 554.652266501 413.488372093 577 c 2
 437.441860465 783 l 2
 440.473483138 809.071954988 447.271200845 805 475 805 c 2
 505 805 l 6
 518.062804009 805 524.631134929 801.827760387 522.325581395 782 c 2
 498.837209302 580 l 2
 495.497592967 551.279299519 493.612157496 550 526 550 c 2
 648 550 l 2
 669.925745922 550 670 549.999812104 670 528 c 2
 670 491 l 2
 670 465.08775482 669.999777942 465 644 465 c 2
 508 465 l 2
 484.747326465 465 485.323988978 463.786305211 482.906976744 443 c 2
 470.11627907 333 l 2
 467.319236355 308.945432653 459.615121402 300 489 300 c 2
 608 300 l 2
 628.031799128 300 640 306.173657165 640 284 c 2
 640 251 l 2
 640 230.439554333 647.066933571 215 624 215 c 2
 486 215 l 2
 461.304647714 215 456.727708568 217.858293688 454.069767442 195 c 2
 427.325581395 -35 l 2
 425.106441927 -54.0845994244 425.459821605 -55 404 -55 c 2
 364 -55 l 2
 337.11502547 -55 340.320086926 -52.2472524384 343.023255814 -29 c 2
 369.186046512 196 l 2
 371.655027059 217.23323271 368.812598755 215 346 215 c 2
 258 215 l 2
 234.051615767 215 236.030609311 211.863240075 233.604651163 191 c 2
 208.255813953 -27 l 2
 205.383123152 -51.7051408915 207.494731719 -55 179 -55 c 2
 143 -55 l 2
 114.677430549 -55 120.747020063 -48.5756274592 123.488372093 -25 c 2
 148.953488372 194 l 2
 151.649536393 217.186012976 148.966892098 215 124 215 c 2
 16 215 l 2
 -1.13996260331 215 -10 210.108266917 -10 229 c 2
 -10 279 l 2
 -10 301.648351711 -8.04279694349 300 14 300 c 2
 138 300 l 2
 164.322965535 300 161.756759523 304.108131897 164.418604651 327 c 2
 177.325581395 438 l 2
 180.091286768 461.785066203 183.756874856 465 156 465 c 2
 45 465 l 2
 24.847618092 465 20 461.481565227 20 483 c 2
 20 523 l 2
 20 548.808798038 18.9781976089 550 45 550 c 2
 164 550 l 2
 186.840052872 550 190.106408018 547.915108958 192.558139535 569 c 2
 218.488372093 792 l 2
 220.2016514 806.73420204 222.979931784 805 239 805 c 6
375 465 m 6
 297 465 l 2
 266.597148342 465 265.50117534 465.310107928 262.325581395 438 c 2
 248.720930233 321 l 2
 246.248100496 299.733664262 246.244809269 300 270 300 c 2
 360 300 l 2
 382.801224674 300 381.521282407 302.083028699 383.837209302 322 c 2
 398.023255814 444 l 2
 400.592515838 466.095636206 399.516730367 465 375 465 c 6
EndSplineSet
EndChar

StartChar: slash
Encoding: 47 47 82
Width: 520
Flags: HMW
LayerCount: 2
Fore
SplineSet
415 780 m 2
 431 780 l 2
 485.799357171 780 474.129797202 763.506680961 459.001075269 721 c 2
 163.592473118 -109 l 2
 152.27632838 -140.794606063 155.384931754 -150 110 -150 c 2
 76 -150 l 2
 27.2931307032 -150 45.0411926459 -136.046698926 56.2580645161 -105 c 6
 360.464516129 737 l 2
 372.150315834 769.344624184 368.662674728 780 415 780 c 2
EndSplineSet
EndChar

StartChar: percent
Encoding: 37 37 83
Width: 1000
Flags: HMW
LayerCount: 2
Fore
SplineSet
720 210 m 0
 720 108 731 50 765 50 c 0
 799 50 810 108 810 210 c 0
 810 312 799 370 765 370 c 0
 731 370 720 312 720 210 c 0
550 210 m 0
 550 353 622 440 765 440 c 0
 908 440 980 353 980 210 c 0
 980 67 888 -20 765 -20 c 0
 622 -20 550 67 550 210 c 0
736 750 m 2
 776 750 l 2
 799.119330938 750 814.154945819 748.783511255 796.938666667 724 c 2
 312.756 27 l 2
 298.305908519 6.19852473924 296.960942244 0 260 0 c 2
 224 0 l 6
 185.200462302 0 189.906868582 6.99648562081 217.962666667 47 c 6
 690.661333333 721 l 2
 703.269088825 738.976837679 703.734425871 750 736 750 c 2
190 540 m 0
 190 438 201 380 235 380 c 0
 269 380 280 438 280 540 c 0
 280 642 269 700 235 700 c 0
 201 700 190 642 190 540 c 0
20 540 m 0
 20 683 92 770 235 770 c 0
 378 770 450 683 450 540 c 0
 450 397 358 310 235 310 c 0
 92 310 20 397 20 540 c 0
EndSplineSet
EndChar

StartChar: hyphen
Encoding: 45 45 85
Width: 460
Flags: HMW
LayerCount: 2
Fore
SplineSet
99 435 m 2
 381 435 l 2
 407.741979189 435 400 419.00096216 400 395 c 2
 400 368 l 6
 400 340.867497682 403.942089691 340 350 340 c 6
 102 340 l 6
 62.3593081736 340 60 342.49669812 60 365 c 6
 60 403 l 6
 60 428.603038625 64.4875947655 435 99 435 c 2
EndSplineSet
EndChar

StartChar: plus
Encoding: 43 43 87
Width: 530
Flags: HMW
LayerCount: 2
Fore
SplineSet
348 358 m 6
 436 358 l 2
 469.885243697 358 470 357.999709616 470 324 c 2
 470 296 l 2
 470 268.582236092 463.838981756 273 438 273 c 2
 330 273 l 2
 303.994611929 273 307 269.153274152 307 244 c 2
 307 138 l 2
 307 106.470333915 302.513876112 110 272 110 c 2
 254 110 l 2
 214.660768557 110 223 123.280901088 223 160 c 2
 223 244 l 2
 223 281.659646525 208.530614308 273 174 273 c 2
 84 273 l 2
 56.5552603451 273 60 277.497279643 60 304 c 2
 60 324 l 2
 60 358.92087619 61.0865324834 358 96 358 c 2
 184 358 l 2
 226.713217445 358 223 362.509669201 223 404 c 2
 223 500 l 2
 223 521.635845568 224.950677173 520 246 520 c 2
 282 520 l 2
 308.695055262 520 307 518.013315289 307 492 c 2
 307 402 l 2
 307 359.793970355 305.46286092 358 348 358 c 6
EndSplineSet
EndChar

StartChar: less
Encoding: 60 60 89
Width: 560
Flags: HMW
LayerCount: 2
Fore
SplineSet
204 364.363636364 m 6
 464 263.909090909 l 2
 491.365799803 253.335940985 500 255.930146807 500 216 c 2
 500 186 l 2
 500 134.985009757 491.449336238 148.303665545 458 161.227272727 c 2
 92 302.636363636 l 2
 63.4392558748 313.671196594 60 313.890947543 60 355 c 2
 60 420 l 2
 60 464.378997223 66.9743702452 462.694643049 98 474.681818182 c 2
 464 616.090909091 l 2
 494.568785155 627.901576083 500 637.299475732 500 592 c 2
 500 564 l 2
 500 516.243615115 486.884964808 519.932827312 454 507.227272727 c 2
 206 411.409090909 l 2
 143.635131873 387.313573678 140.117830876 389.045383525 204 364.363636364 c 6
EndSplineSet
EndChar

StartChar: backslash
Encoding: 92 92 91
Width: 520
Flags: HMW
LayerCount: 2
Fore
SplineSet
156.283870968 746 m 6
 466.270967742 -112 l 2
 477.285895685 -142.487746985 488.830561931 -150 443 -150 c 2
 407 -150 l 2
 366.107471319 -150 368.426765988 -142.77006758 358.187096774 -114 c 2
 52.8129032258 744 l 2
 42.9344390569 771.755201441 31.071801877 780 73 780 c 2
 113 780 l 2
 149.65670009 780 146.998126411 771.701614398 156.283870968 746 c 6
EndSplineSet
EndChar

StartChar: bracketleft
Encoding: 91 91 92
Width: 365
Flags: HMW
LayerCount: 2
Fore
SplineSet
109 780 m 6
 295 780 l 2
 329.758674722 780 335 784.15117132 335 748 c 2
 335 720 l 2
 335 680.481750951 329.230810484 685 291 685 c 2
 261 685 l 2
 221.331722212 685 225 680.502204253 225 642 c 2
 225 -6 l 2
 225 -50.3383503701 221.080220049 -55 267 -55 c 2
 289 -55 l 2
 323.053647816 -55 335 -47.3464536822 335 -84 c 2
 335 -120 l 2
 335 -154.814558389 328.546088445 -150 295 -150 c 2
 117 -150 l 2
 67.4721997662 -150 55 -158.927298903 55 -106 c 2
 55 732 l 2
 55 783.367601628 58.9577762679 780 109 780 c 6
EndSplineSet
EndChar

StartChar: braceleft
Encoding: 123 123 93
Width: 332
VWidth: 1155
Flags: HMW
LayerCount: 2
Fore
SplineSet
265.999997979 -149.374623397 m 4
 98.0643776378 -143.304827271 35 -93.2944021786 35 -10 c 0
 35 87 115 152 115 215 c 0
 115 240.181828631 103.683084595 251.406128263 88.0000007195 258.635636169 c 0
 64.5054436646 269.466037086 55 263.001635148 55 300 c 2
 55 328 l 2
 55 367.762073371 65.5380384932 360.072047984 89.9999993002 372.690455663 c 0
 104.636194447 380.240360541 115 391.901896939 115 416 c 0
 115 479 35 544 35 641 c 0
 35 722.280121433 95.0511281519 771.03254845 254 778.878599268 c 0
 280.119850497 780.167930057 302 789.60412869 302 758 c 2
 302 718 l 2
 302 690.94345389 299.575312435 694.568992678 276.000021412 691.40626107 c 0
 231.074892898 685.379352482 208 662.006032287 208 617 c 0
 208 551 242 521 242 431 c 0
 242 392.577495276 217.784490895 363.798334886 184.432256987 340 c 0
 153.506036359 317.932735861 136.274289614 321.794531036 173.361071687 298 c 0
 212.289634429 273.023799786 242 242.559142443 242 200 c 0
 242 110 208 80 208 14 c 0
 208 -26.0667611501 226.288021064 -49.5600032106 261.999980915 -58.6399318769 c 0
 289.614398345 -65.6610234517 302 -54.5628960904 302 -92 c 2
 302 -126 l 2
 302 -155.603959897 292.757043759 -150.341719076 265.999997979 -149.374623397 c 4
EndSplineSet
EndChar

StartChar: bar
Encoding: 124 124 96
Width: 300
VWidth: 1155
Flags: HMW
LayerCount: 2
Fore
SplineSet
128 780 m 6
 168 780 l 2
 203.219438445 780 205 781.527398673 205 746 c 2
 205 -190 l 2
 205 -226.668239062 216.673181402 -250 176 -250 c 2
 130 -250 l 2
 87.7967509405 -250 95 -239.710032158 95 -200 c 2
 95 750 l 2
 95 781.425371945 96.6576778036 780 128 780 c 6
EndSplineSet
EndChar

StartChar: cent
Encoding: 162 162 98
Width: 605
VWidth: 1155
Flags: HMW
LayerCount: 2
Fore
SplineSet
322 615 m 2
 352 615 l 2
 370.267414353 615 370.974984303 615.669555613 370.217717633 598 c 2
 368.846289062 566 l 2
 367.390239445 532.025508943 378.073976346 539.598148772 405.999991638 533.912288375 c 0
 511.421229573 512.448057423 575 438.080635366 575 373 c 0
 575 305 520 260 471 260 c 0
 414 260 374 296 374 353 c 0
 374 399 417 406 417 428 c 0
 417 439.832383262 406.197122403 451.664766524 388.000001556 458.384198264 c 0
 370.523600321 464.837498549 364.590217011 466.691652155 363.617717633 444 c 2
 348.789146205 98 l 2
 347.632290451 71.00669908 340.447642616 55.7991229679 370.008926208 61.9079538911 c 0
 409.638739093 70.0974435551 439.968925881 95.9103322936 461 143.455078125 c 0
 468.83203125 161.162109375 465.073242188 173 493 173 c 2
 525 173 l 2
 557.01171875 173 563.84765625 172.364257812 555.6953125 147 c 0
 529.656744627 65.9872192585 476.105602784 1.25049107599 380 -15.6701900834 c 0
 360.712512461 -19.0660111132 344.06139928 -12.3140949161 343.046289062 -36 c 2
 342.274860491 -54 l 2
 341.094982992 -81.53047497 343.723271272 -85 314 -85 c 2
 288 -85 l 2
 263.71865554 -85 266.050302606 -82.5730173054 267.017717633 -60 c 2
 267.960574776 -38 l 2
 269.225504953 -8.48496255405 254.932808516 -14.9712676383 231.999997147 -9.47658360372 c 4
 91.6665853108 24.1471943596 35 133.618317588 35 250 c 0
 35 375.617885411 103.730026988 494.222502761 250 529.461220414 c 0
 286.689106201 538.300198283 292.427934388 532.905057606 294.360574776 578 c 2
 295.132003348 596 l 2
 296.066070889 617.794909304 300.005851301 615 322 615 c 2
274.560574776 116 m 6
 286.732003348 400 l 2
 289.447339998 463.35785518 269.292982682 429.966196681 253.815836377 398.000003503 c 0
 237.732611216 364.782026995 230 320.761638899 230 270 c 0
 230 209.073605171 233.141911469 153.002891704 251.179921872 114.000002418 c 0
 263.095870979 88.2346084861 272.642727806 71.2502373551 274.560574776 116 c 6
EndSplineSet
EndChar

StartChar: sterling
Encoding: 163 163 99
Width: 650
VWidth: 1155
Flags: HMW
LayerCount: 2
Fore
SplineSet
453 375 m 2
 453 327 l 2
 453 302.656085721 455.221540363 300 430 300 c 2
 333 300 l 2
 309.79127075 300 312.774695906 297.202217443 308.418009411 279 c 0
 292.026580342 210.516679832 234.330078125 177.176757812 179 143.436523438 c 0
 136.104486265 117.278875805 136.756533426 110.704497686 181 135.75390625 c 0
 212.58203125 153.634765625 250.50662246 166.999998685 280 167 c 0
 360 167 380 113 446 113 c 0
 478.271710036 113 511.106677653 131.024242615 525.482162366 161.99999705 c 0
 535.011719164 182.533928053 524.123851006 197 555 197 c 2
 578 197 l 2
 602.142923776 197 600.544733759 193.890034202 599.31850455 171.000008939 c 0
 592.359223396 41.0910814072 532.333806847 -40 430 -40 c 0
 313 -40 268 35 195 35 c 0
 147.815510599 35 119.179168804 20.041816447 103.999999672 -0.618232582683 c 0
 95.1698320455 -12.636788706 99.2433471359 -20 78 -20 c 2
 37 -20 l 2
 16.7231137135 -20 18.3776834215 -14.1052056712 18.2961106674 4 c 4
 17.7366880228 128.164767392 147 200.77993975 147 261 c 0
 147 298.592445387 142.43434638 300 104 300 c 2
 -14 300 l 2
 -42.1424325505 300 -37 307.576530688 -37 334 c 2
 -37 360 l 2
 -37 392.272164161 -39.3584456927 395 -6 395 c 2
 46 395 l 2
 102.707311063 395 102.946056933 392.613393564 82.3348398153 430 c 0
 62.596870627 465.802625418 46 503.382362786 46 550 c 0
 46 690 161 775 362 775 c 0
 544 775 608 673 608 581 c 0
 608 513 563 475 514 475 c 0
 467 475 418 506 418 563 c 0
 418 609 455 624 455 647 c 0
 455 674 436 693 362 693 c 0
 283 693 237 634 237 560 c 0
 237 514.783189983 252.854152945 476.450420061 270.080151327 441 c 0
 282.713185074 415.00171862 281.212322354 395 321 395 c 2
 427 395 l 2
 449.067309663 395 453 398.009684818 453 375 c 2
EndSplineSet
EndChar

StartChar: section
Encoding: 167 167 101
Width: 574
VWidth: 1155
Flags: HMW
LayerCount: 2
Fore
SplineSet
367 658 m 0
 367 684 325 694 273 694 c 0
 220 694 185 671 185 634 c 0
 185 518 528 538 528 375 c 0
 528 343.365956053 511.716212869 313.582342462 486.803424132 287.000003731 c 0
 458.862864055 257.1869852 450.382538747 263.898234535 482.999998332 236.261892507 c 4
 510.335217832 213.101122628 528 183.182810701 528 142 c 0
 528 18 368 -20 273 -20 c 0
 165 -20 9 12 9 138 c 0
 9 206 64 239 103 239 c 0
 150 239 190 203 190 156 c 0
 190 120 138 115 138 92 c 0
 138 66 210 56 262 56 c 0
 325 56 370 69 370 116 c 0
 370 232 27 212 27 375 c 0
 27 420.359321803 52.4008404253 447.858677682 84.6998732238 471 c 0
 114.141014298 492.0937256 103.399253155 487.764515729 77.6320501755 508 c 0
 47.1790480861 531.915333195 27 563.33171051 27 608 c 0
 27 712 167 770 262 770 c 0
 390 770 516 728 516 612 c 0
 516 544 471 516 432 516 c 0
 395 516 335 547 335 594 c 0
 335 630 367 635 367 658 c 0
362 333 m 4
 362 391.829174169 294.440298893 416.57599166 220.000002377 442.470560111 c 0
 193.832136047 451.573232153 183 450.895347537 183 417 c 0
 183 359.513901519 249.43580059 334.571716949 323.999997565 309.301590878 c 0
 349.876742925 300.531850922 362 298.107426956 362 333 c 4
EndSplineSet
EndChar

StartChar: asciitilde
Encoding: 126 126 104
Width: 688
VWidth: 1155
Flags: HMW
LayerCount: 2
Fore
SplineSet
243 427 m 0
 198.333984661 427 182.077409354 404.272447974 178.069290554 366.000003268 c 0
 175.407333513 340.581693897 173.482134279 343 146 343 c 2
 108 343 l 2
 69.8603692667 343 78.8084671371 363.647871326 84.4176749867 393.99999322 c 0
 100.104662568 478.884235701 157.158772599 530 249 530 c 0
 379 530 359 426 435 426 c 0
 471.678539304 426 493.989169258 441.325769974 504.251988915 467.999997258 c 0
 514.426781885 494.445433242 500.595732246 510 540 510 c 2
 576 510 l 2
 605.568278531 510 609.454838821 511.243001089 606.741325165 482.000007279 c 4
 597.59515208 383.433529703 538.861763231 323 439 323 c 0
 292 323 326 427 243 427 c 0
EndSplineSet
EndChar

StartChar: copyright
Encoding: 169 169 105
Width: 870
Flags: HMW
LayerCount: 2
Fore
SplineSet
40 375 m 0
 40 588 218 760 435 760 c 0
 652 760 830 588 830 375 c 0
 830 162 652 -10 435 -10 c 0
 218 -10 40 162 40 375 c 0
100 375 m 0
 100 190 250 39 435 39 c 0
 620 39 770 190 770 375 c 0
 770 560 620 711 435 711 c 0
 250 711 100 560 100 375 c 0
EndSplineSet
Refer: 14 67 S 0.6 0 0 0.6 162 150 2
EndChar

StartChar: registered
Encoding: 174 174 106
Width: 870
Flags: HMW
LayerCount: 2
Fore
SplineSet
40 375 m 0
 40 588 218 760 435 760 c 0
 652 760 830 588 830 375 c 0
 830 162 652 -10 435 -10 c 0
 218 -10 40 162 40 375 c 0
100 375 m 0
 100 190 250 39 435 39 c 0
 620 39 770 190 770 375 c 0
 770 560 620 711 435 711 c 0
 250 711 100 560 100 375 c 0
EndSplineSet
Refer: 29 82 S 0.6 0 0 0.6 178 148 2
EndChar

StartChar: guillemotleft
Encoding: 171 171 108
Width: 695
Flags: HMW
LayerCount: 2
Fore
SplineSet
483 367.113821509 m 2
 658 205.681952946 l 2
 676.642747618 188.484618185 672.990726639 187.237249129 658.272727273 167 c 2
 646.636363636 151 l 2
 633.630309743 133.116675896 632.552564626 136.727601441 615 149.117647059 c 2
 309 365.117647059 l 2
 299.187606845 372.044042227 295 372.342939483 295 390 c 0
 295 403.483998927 300.492638505 403.877156592 308 409.176470588 c 2
 607 620.235294118 l 2
 625.556968013 633.334330362 631.257023335 645.146592915 645.909090909 625 c 2
 656.090909091 611 l 2
 670.808273089 590.763624503 678.238977837 587.987852826 659 570.240514874 c 6
 480 405.11877503 l 2
 459.112353338 385.850593141 462.75879618 385.785680678 483 367.113821509 c 2
206 364.346418048 m 2
 374 209.371824228 l 2
 390.338274772 194.30029151 397.363749373 193.250155388 383.363636364 174 c 2
 370.272727273 156 l 2
 352.974286211 132.21464354 351.304608318 137.608511776 328 154.058823529 c 2
 45 353.823529412 l 2
 18.6544594291 372.420381579 15 366.813167617 15 388 c 0
 15 410.032263012 19.1976992852 402.963081848 56 428.941176471 c 2
 330 622.352941176 l 2
 347.077633724 634.407741452 351.7277421 644.499354613 365.181818182 626 c 2
 378.272727273 608 l 2
 390.611024882 591.034840787 398.183456701 587.936636364 382 573.007918335 c 2
 202 406.963710671 l 2
 178.606770723 385.384209448 183.382763731 385.210090692 206 364.346418048 c 2
EndSplineSet
EndChar

StartChar: mu
Encoding: 181 181 111
Width: 735
VWidth: 1155
Flags: HMW
LayerCount: 2
Fore
SplineSet
281 -113 m 0
 334 -113 347 -147 347 -181 c 0
 347 -216 314 -260 256 -260 c 0
 194 -260 110 -211 110 -122 c 0
 110 54 110 230 110 406 c 0
 110 435.42578125 109.461914062 435 80 435 c 2
 44 435 l 2
 18.31640625 435 20 436.978515625 20 462 c 2
 20 484 l 2
 20 523.21875 23.8779296875 520 62 520 c 2
 230 520 l 2
 268.875 520 280 527.645507812 280 486 c 2
 280 167 l 2
 280 103 294 77 345 77 c 0
 413 77 455 134 455 237 c 2
 455 400 l 2
 455 433.791015625 456.030273438 435 422 435 c 2
 412 435 l 2
 385.0390625 435 385 441.828125 385 476 c 2
 385 492 l 2
 385 520.428710938 388.538085938 520 417 520 c 2
 572 520 l 2
 614.611328125 520 625 527.509765625 625 482 c 2
 625 130 l 2
 625 94.7216796875 618.236328125 85 656 85 c 2
 682 85 l 2
 712.291992188 85 715 87.326171875 715 56 c 2
 715 28 l 2
 715 -1.7275390625 712.98828125 0 684 0 c 2
 510 0 l 2
 474.006835938 0 465 -6.458984375 465 32 c 2
 465 58 l 2
 465 104.842773438 450.76953125 75.1884765625 437 53.73828125 c 0
 407.479492188 7.751953125 353.42578125 -20 272 -20 c 0
 247.62240762 -20 226.370479988 -17.2216313349 207.999998575 -11.8548417498 c 0
 182.493483756 -4.40331693644 170 19.0056903674 170 -22 c 6
 170 -119 l 2
 170 -156 194 -152 207 -152 c 0
 227 -152 246 -113 281 -113 c 0
EndSplineSet
EndChar

StartChar: asciicircum
Encoding: 94 94 113
Width: 545
Flags: HMW
LayerCount: 2
Fore
SplineSet
233 643.090909091 m 6
 139 574.727272727 l 2
 113.233104104 555.987712075 108.494885228 548.386976049 77 562.923076923 c 2
 55 573.076923077 l 2
 33.1074109657 583.181194939 48.6616502452 589.142853037 61.7894736842 603 c 2
 198.210526316 747 l 2
 214.72792985 764.435037064 218.860325989 770 255 770 c 2
 299 770 l 2
 327.360840157 770 330.061523698 764.657280541 343 751 c 2
 469.947368421 617 l 2
 488.005469375 597.938671215 516.119564346 585.132106621 485 570.769230769 c 2
 463 560.615384615 l 2
 434.599122988 547.507287533 428.099951526 558.654580708 405 575.454545455 c 2
 301 651.090909091 l 2
 268.493690641 674.731861352 264.36214229 665.899739848 233 643.090909091 c 6
EndSplineSet
EndChar

StartChar: degree
Encoding: 176 176 115
Width: 320
Flags: HMW
LayerCount: 2
Fore
SplineSet
105 680 m 0
 105 650 130 625 160 625 c 0
 190 625 215 650 215 680 c 0
 215 710 190 735 160 735 c 0
 130 735 105 710 105 680 c 0
40 680 m 0
 40 746 94 800 160 800 c 0
 226 800 280 746 280 680 c 0
 280 614 226 560 160 560 c 0
 94 560 40 614 40 680 c 0
EndSplineSet
EndChar

StartChar: onequarter
Encoding: 188 188 119
Width: 1000
Flags: HMW
LayerCount: 2
Fore
SplineSet
702 750 m 6
 730 750 l 6
 771.223532306 750 762.915606914 746.455113799 748.536 722 c 6
 341.64 30 l 6
 328.85841893 8.26261722814 329.373255568 0 293 0 c 6
 263 0 l 6
 228.282315411 0 248.573802167 22.8259005044 261.165333333 44 c 6
 666.728 726 l 6
 676.062898516 741.697699298 675.485797713 750 702 750 c 6
EndSplineSet
Refer: 6 52 N 0.6 0 0 0.6 535 32 2
Refer: 3 49 N 0.6 0 0 0.6 107 456 2
EndChar

StartChar: onehalf
Encoding: 189 189 120
Width: 1000
Flags: HMW
LayerCount: 2
Fore
SplineSet
702 750 m 6
 730 750 l 6
 771.223532306 750 762.915606914 746.455113799 748.536 722 c 6
 341.64 30 l 6
 328.85841893 8.26261722814 329.373255568 0 293 0 c 6
 263 0 l 6
 228.282315411 0 248.573802167 22.8259005044 261.165333333 44 c 6
 666.728 726 l 6
 676.062898516 741.697699298 675.485797713 750 702 750 c 6
EndSplineSet
Refer: 4 50 N 0.6 0 0 0.6 576 17 2
Refer: 3 49 N 0.6 0 0 0.6 107 456 2
EndChar

StartChar: threequarters
Encoding: 190 190 121
Width: 1000
Flags: HMW
LayerCount: 2
Fore
SplineSet
702 750 m 6
 730 750 l 6
 771.223532306 750 762.915606914 746.455113799 748.536 722 c 6
 341.64 30 l 6
 328.85841893 8.26261722814 329.373255568 0 293 0 c 6
 263 0 l 6
 228.282315411 0 248.573802167 22.8259005044 261.165333333 44 c 6
 666.728 726 l 6
 676.062898516 741.697699298 675.485797713 750 702 750 c 6
EndSplineSet
Refer: 6 52 N 0.6 0 0 0.6 535 32 2
Refer: 5 51 N 0.6 0 0 0.6 65 457 2
EndChar

StartChar: grave
Encoding: 96 96 123
Width: 395
Flags: HMW
LayerCount: 2
Fore
SplineSet
210 690 m 2
 171.0546875 689.134765625 135 716 135 755 c 0
 135 794 176.610620884 835.397673752 220 818 c 2
 411 741.415458937 l 2
 422.943383269 736.626566129 427.137732879 737.754657571 426.3 721 c 2
 425.85 712 l 2
 425.221342028 699.426840565 427.768186782 695.064376437 414 694.744186047 c 6
 210 690 l 2
EndSplineSet
EndChar

StartChar: acute
Encoding: 180 180 124
Width: 395
Flags: HMW
LayerCount: 2
Fore
SplineSet
165 700 m 2
 -20 704.302325581 l 2
 -44.0903761157 704.862566886 -49.8053534484 701.107068967 -51.05 726 c 0
 -52.211082513 749.221650259 -45.6222588805 747.557258517 -29 754.222222222 c 6
 155 828 l 2
 198.389648438 845.397460938 240 804 240 765 c 0
 240 726 203.9453125 699.134765625 165 700 c 2
EndSplineSet
EndChar

StartChar: cedilla
Encoding: 184 184 128
Width: 550
Flags: HMW
LayerCount: 2
Fore
SplineSet
211.000003068 -180.593194599 m 0
 278.828349175 -184.482730602 309 -171.109525663 309 -150 c 0
 309 -122.939699054 291.104168091 -106.145163953 217 -100.83684694 c 0
 153.118997065 -96.2608477294 157.916109179 -97.8457616135 189.223493304 -58 c 2
 267 40.98828125 l 1
 377 40.98828125 l 1
 321.223493304 -30 l 2
 294.481331858 -64.0354782029 306.855763066 -56.2850861461 344.999996893 -71.8082130094 c 4
 385.436938736 -88.2643772891 410 -112.634441007 410 -140 c 0
 410 -187.165765947 358.389060124 -243.229969805 209 -241.040349212 c 0
 177.983366073 -240.585733189 181 -235.014462627 181 -204 c 0
 181 -174.01406857 185.690545328 -179.141853784 211.000003068 -180.593194599 c 0
EndSplineSet
EndChar

StartChar: AE
Encoding: 198 198 526
Width: 1197
Flags: HMW
LayerCount: 2
Fore
SplineSet
290 295 m 1
 640 295 l 1
 640 190 l 1
 290 190 l 1
 290 295 l 1
0 95 m 1
 300 95 l 1
 300 0 l 1
 0 0 l 1
 0 95 l 1
646 750 m 5
 775 750 l 5
 169 0 l 1
 35 0 l 1
 646 750 l 5
EndSplineSet
Refer: 16 69 N 1 0 0 1 460 0 2
EndChar

StartChar: ae
Encoding: 230 230 529
Width: 909
VWidth: 1155
Flags: HMW
LayerCount: 2
Fore
SplineSet
314 294 m 1
 334 229 l 1
 228 229 202 178 202 141 c 0
 202 104 225 79 260 79 c 0
 308 79 346 123 346 194 c 1
 425 174 l 1
 425 50 321 -15 200 -15 c 0
 81 -15 15 34 15 128 c 0
 15 222 102 294 314 294 c 1
456 352 m 1
 516 126 l 1
 346 78 l 1
 346 372 l 1
 456 352 l 1
45 383 m 1
 45 470 157 535 288 535 c 4
 388 535 456 493 456 352 c 1
 346 362 l 1
 346 429 313 464 263 464 c 0
 239 464 207 457 207 444 c 1
 45 383 l 1
314 294 m 1
 448 294 l 1
 448 229 l 1
 334 229 l 1
 314 294 l 1
229 374 m 0
 229 330 188 300 134 300 c 0
 78 300 45 329 45 383 c 1
 207 444 l 1
 207 431 229 422 229 374 c 0
375 250 m 1
 516 275 l 1
 516 151 536 69 625 69 c 0
 678 69 737 103 762 173 c 1
 858 173 l 1
 832 66 744 -20 613 -20 c 0
 432 -20 375 110 375 250 c 1
472 329 m 1
 786 329 l 1
 786 246 l 1
 472 246 l 1
 472 329 l 1
869 246 m 1
 699 246 l 1
 699 349 703 461 619 461 c 0
 540 461 516 374 516 270 c 1
 375 250 l 1
 375 410 439 540 620 540 c 0
 839 540 869 375 869 246 c 1
EndSplineSet
EndChar

StartChar: perthousand
Encoding: 8240 8240 537
Width: 1470
Flags: HMW
LayerCount: 2
Fore
SplineSet
1190 210 m 0
 1190 108 1201 50 1235 50 c 0
 1269 50 1280 108 1280 210 c 0
 1280 312 1269 370 1235 370 c 0
 1201 370 1190 312 1190 210 c 0
1020 210 m 0
 1020 353 1092 440 1235 440 c 0
 1378 440 1450 353 1450 210 c 0
 1450 67 1358 -20 1235 -20 c 0
 1092 -20 1020 67 1020 210 c 0
720 210 m 0
 720 108 731 50 765 50 c 0
 799 50 810 108 810 210 c 0
 810 312 799 370 765 370 c 0
 731 370 720 312 720 210 c 0
550 210 m 0
 550 353 622 440 765 440 c 0
 908 440 980 353 980 210 c 0
 980 67 888 -20 765 -20 c 0
 622 -20 550 67 550 210 c 0
739 750 m 2
 772 750 l 2
 819.866981648 750 813.894406589 748.408454783 794.854666667 721 c 2
 323.870666667 43 l 2
 302.605913289 12.3885507999 301.770226995 0 247 0 c 2
 217 0 l 2
 169.552444889 0 195.714452118 15.2772606243 210.949333333 37 c 6
 688.557333333 718 l 2
 702.587362939 738.004795065 703.071127303 750 739 750 c 2
190 540 m 0
 190 438 201 380 235 380 c 0
 269 380 280 438 280 540 c 0
 280 642 269 700 235 700 c 0
 201 700 190 642 190 540 c 0
20 540 m 0
 20 683 92 770 235 770 c 0
 378 770 450 683 450 540 c 0
 450 397 358 310 235 310 c 0
 92 310 20 397 20 540 c 0
EndSplineSet
EndChar

StartChar: uni2031
Encoding: 8241 8241 538
Width: 1940
Flags: HMW
LayerCount: 2
Fore
SplineSet
1660 210 m 0
 1660 108 1671 50 1705 50 c 0
 1739 50 1750 108 1750 210 c 0
 1750 312 1739 370 1705 370 c 0
 1671 370 1660 312 1660 210 c 0
1490 210 m 0
 1490 353 1562 440 1705 440 c 0
 1848 440 1920 353 1920 210 c 0
 1920 67 1828 -20 1705 -20 c 0
 1562 -20 1490 67 1490 210 c 0
1190 210 m 0
 1190 108 1201 50 1235 50 c 0
 1269 50 1280 108 1280 210 c 0
 1280 312 1269 370 1235 370 c 0
 1201 370 1190 312 1190 210 c 0
1020 210 m 0
 1020 353 1092 440 1235 440 c 0
 1378 440 1450 353 1450 210 c 0
 1450 67 1358 -20 1235 -20 c 0
 1092 -20 1020 67 1020 210 c 0
720 210 m 0
 720 108 731 50 765 50 c 0
 799 50 810 108 810 210 c 0
 810 312 799 370 765 370 c 0
 731 370 720 312 720 210 c 0
550 210 m 0
 550 353 622 440 765 440 c 0
 908 440 980 353 980 210 c 0
 980 67 888 -20 765 -20 c 0
 622 -20 550 67 550 210 c 0
733 750 m 2
 784 750 l 2
 829.413545195 750 805.329786092 736.079346581 790.686666667 715 c 2
 330.122666667 52 l 2
 315.198655776 30.5162991018 308.144279902 0 271 0 c 2
 211 0 l 2
 167.765274927 0 202.398167561 24.8072731383 215.157333333 43 c 6
 692.765333333 724 l 2
 703.949619381 739.947175924 704.400180316 750 733 750 c 2
190 540 m 0
 190 438 201 380 235 380 c 0
 269 380 280 438 280 540 c 0
 280 642 269 700 235 700 c 0
 201 700 190 642 190 540 c 0
20 540 m 0
 20 683 92 770 235 770 c 0
 378 770 450 683 450 540 c 0
 450 397 358 310 235 310 c 0
 92 310 20 397 20 540 c 0
EndSplineSet
EndChar

StartChar: uniFB00
Encoding: 64256 64256 542
Width: 825
VWidth: 1155
Flags: HMW
LayerCount: 2
Fore
SplineSet
280 404 m 2
 280 132 l 2
 280 90.9010037002 275.282985943 85 318 85 c 2
 340 85 l 2
 365.910435301 85 380 92.5990493771 380 64 c 2
 380 34 l 2
 380 8.3977547745 385.510462989 0 358 0 c 2
 60 0 l 2
 23.9804320504 0 20 -3.32298909211 20 34 c 2
 20 64 l 6
 20 85.1015625 26.2308999532 85 46 85 c 2
 88 85 l 2
 115.760524696 85 110 94.0631189088 110 120 c 2
 110 416 l 2
 110 436.622912317 108.055410393 435 88 435 c 2
 44 435 l 2
 17.4071663947 435 20 438.207706076 20 464 c 2
 20 502 l 2
 20 522.888735034 23.8723469328 520 44 520 c 2
 82 520 l 2
 108.806816381 520 110 518.976868017 110 546 c 2
 110 572 l 2
 110 703 217 780 367 780 c 0
 420.492200696 780 469.148957623 771.829767424 507.999996344 756.238247736 c 0
 549.214153705 739.698372173 545.080944783 728.891658696 579.999994227 753.831791643 c 0
 620.951977836 783.080809928 674.35373596 800 737 800 c 0
 868 800 960 751 960 664 c 0
 960 594 915 553 863 553 c 0
 801 553 763 591 763 646 c 0
 763 693 793 698 793 709 c 0
 793 717 781 725 759 725 c 0
 679 725 660 677 660 550 c 0
 660 514.140635581 668.217985545 520 702 520 c 2
 768 520 l 2
 793.054810263 520 800 524.82303003 800 498 c 2
 800 456 l 2
 800 434.550550623 799.459291688 435 778 435 c 2
 696 435 l 2
 667.632932026 435 660 440.3513895 660 410 c 2
 660 118 l 2
 660 88.3146137112 657.237106036 85 688 85 c 2
 752 85 l 2
 780.428530702 85 780 84.4620084397 780 56 c 2
 780 28 l 2
 780 1.19318361883 781.023131983 0 754 0 c 2
 442 0 l 2
 419.052631464 0 420 1.10105214018 420 24 c 2
 420 58 l 2
 420 81.7188235812 417.35934481 85 442 85 c 2
 470 85 l 2
 496.321887249 85 490 95.9117889713 490 120 c 2
 490 404 l 2
 490 435.419198796 489.462793269 435 458 435 c 2
 316 435 l 2
 283.337862173 435 280 437.817791958 280 404 c 2
310 520 m 2
 468 520 l 2
 487.373545863 520 490 517.878652725 490 538 c 0
 490 558.825488274 480.06389004 553.131438127 464.000003649 556.124734968 c 0
 425.452861438 563.307494869 403 583.722749103 403 626 c 0
 403 673 433 678 433 689 c 0
 433 697 411 705 389 705 c 0
 309 705 280 637 280 550 c 0
 280 520.101255561 280.000256221 520 310 520 c 2
EndSplineSet
LCarets2: 1 0
Ligature2: "Not your mama's contextual ligatures" f f
EndChar

StartChar: uniFB01
Encoding: 64257 64257 543
Width: 760
VWidth: 1155
Flags: HMW
LayerCount: 2
Fore
SplineSet
280 393 m 6
 280 115 l 2
 280 84.5776733001 280.537450542 85 311 85 c 2
 361 85 l 2
 386.710132236 85 390 87.6837172615 390 61 c 2
 390 31 l 2
 390 -2.23358939178 387.369053386 0 355 0 c 2
 59 0 l 2
 25.2399842533 0 20 -4.1268555627 20 31 c 2
 20 61 l 2
 20 86.6838008139 21.978888134 85 47 85 c 2
 83 85 l 2
 111.716895811 85 110 87.0029485606 110 115 c 2
 110 415 l 2
 110 439.965165455 102.367242449 435 79 435 c 2
 43 435 l 2
 13.5238409701 435 20 445.5352846 20 473 c 2
 20 497 l 2
 20 517.369099973 17.8572151652 520 39 520 c 2
 75 520 l 2
 106.051137182 520 110 516.775376022 110 549 c 2
 110 572 l 2
 110 703 217 800 387 800 c 0
 518 800 620 761 620 664 c 0
 620 604 575 563 523 563 c 0
 461 563 423 601 423 656 c 0
 423 693 445 705 445 712 c 0
 445 720 421 725 399 725 c 0
 319 725 280 677 280 550 c 0
 280 519.5776733 280.537450542 520 311 520 c 2
 627 520 l 2
 664.053210834 520 660 514.873677492 660 479 c 2
 660 123 l 2
 660 89.5943746152 656.298644257 85 691 85 c 2
 731 85 l 2
 755.64300311 85 750 75.5993983575 750 53 c 2
 750 29 l 2
 750 -3.11468237564 746.150263825 0 715 0 c 2
 435 0 l 2
 403.709744738 0 410 9.72536973259 410 39 c 2
 410 57 l 2
 410 88.5296660849 414.486123888 85 445 85 c 0
 488.203843277 85 490 83.4617242606 490 127 c 2
 490 397 l 2
 490 439.576305787 484.232989914 435 443 435 c 2
 325 435 l 2
 281.796156723 435 280 436.538275739 280 393 c 6
EndSplineSet
LCarets2: 1 0
Ligature2: "Not your mama's contextual ligatures" f i
EndChar

StartChar: uniFB02
Encoding: 64258 64258 544
Width: 785
VWidth: 1155
Flags: HMW
LayerCount: 2
Fore
SplineSet
741 0 m 2
 468 0 l 2
 426.301436016 0 430 4.50536835244 430 45 c 2
 430 60 l 2
 430 86.6950552618 431.986684711 85 458 85 c 2
 490 85 l 2
 517.914540858 85 520 83.1728547451 520 112 c 2
 520 514 l 2
 520 522.379882812 521.4453624 533 513 533 c 0
 451 533 413 571 413 626 c 0
 413 673 443 678 443 689 c 0
 443 697 411 705 389 705 c 0
 309 705 280 637 280 550 c 0
 280 521.197437816 278.97448284 520 308 520 c 2
 370 520 l 2
 400.170190862 520 420 529.755945725 420 496 c 2
 420 466 l 2
 420 435.643930597 420.521180824 435 390 435 c 2
 314 435 l 2
 283.321988552 435 280 437.781554323 280 406 c 2
 280 130 l 2
 280 90.8964909376 275.329932265 85 316 85 c 2
 336 85 l 2
 366.093385418 85 380 93.0748943191 380 60 c 2
 380 34 l 2
 380 -3.19098865627 376.131962388 0 340 0 c 2
 58 0 l 2
 26.9247185574 0 20 -5.14042877016 20 28 c 2
 20 50 l 2
 20 79.080494205 15.6060374849 85 46 85 c 2
 84 85 l 2
 118.638649709 85 110 100.360190755 110 132 c 2
 110 414 l 2
 110 437.540322509 106.796112509 435 84 435 c 2
 44 435 l 2
 14.8033958502 435 20 442.56322192 20 470 c 2
 20 496 l 2
 20 522.145983735 22.5853452482 520 48 520 c 2
 78 520 l 2
 108.797983207 520 110 518.972404649 110 550 c 2
 110 572 l 2
 110 703 217 780 367 780 c 0
 422.412483588 780 474.42537954 771.232642414 515.999996718 754.530460603 c 0
 554.252839691 739.16276797 558.058778692 722.387516878 594 743.529411765 c 2
 644 772.941176471 l 2
 670.676480827 788.633224016 690 797.611328125 690 744 c 6
 690 129 l 2
 690 92.2264762904 684.590790964 85 723 85 c 2
 744 85 l 2
 767.405101221 85 780 91.8260238389 780 66 c 2
 780 30 l 2
 780 -4.40885857807 774.213293758 0 741 0 c 2
EndSplineSet
LCarets2: 1 0
Ligature2: "Not your mama's contextual ligatures" f l
EndChar

StartChar: uniFB03
Encoding: 64259 64259 545
Width: 1160
VWidth: 1155
Flags: HMW
LayerCount: 2
Fore
SplineSet
754 0 m 2
 452 0 l 2
 418.57739338 0 420 1.65348799501 420 35 c 2
 420 61 l 2
 420 88.0254280728 423.845249047 85 450 85 c 2
 478 85 l 2
 512.245067752 85 510 87.6385175119 510 121 c 2
 510 415 l 2
 510 440.296303358 501.625018891 435 478 435 c 2
 318 435 l 2
 281.217172121 435 280 436.032481795 280 399 c 2
 280 127 l 2
 280 88.9956996827 276.640188614 85 316 85 c 2
 354 85 l 2
 383.902887327 85 380 79.852242715 380 51 c 2
 380 25 l 2
 380 -5.95191074373 371.008811145 0 342 0 c 2
 44 0 l 2
 16.5552603451 0 20 4.49727964297 20 31 c 2
 20 61 l 2
 20 88.0254280728 23.8452490466 85 50 85 c 2
 72 85 l 2
 108.782827879 85 110 83.9675182049 110 121 c 2
 110 417 l 2
 110 442.787529873 93.089746963 435 70 435 c 2
 52 435 l 2
 20.1080059318 435 20 435.000273303 20 467 c 2
 20 501 l 2
 20 525.64300311 29.4006016425 520 52 520 c 2
 80 520 l 2
 110.4223267 520 110 520.537450542 110 551 c 2
 110 572 l 2
 110 703 217 780 367 780 c 0
 453.553392429 780 527.447079567 758.609463475 567.625769991 719.001105571 c 1
 615.545541173 769.252583837 691.287784925 800 787 800 c 0
 918 800 1020 761 1020 664 c 0
 1020 604 975 563 923 563 c 0
 861 563 823 601 823 656 c 0
 823 693 845 705 845 712 c 0
 845 720 821 725 799 725 c 0
 719 725 680 677 680 550 c 0
 680 513.415350387 689.632806884 520 724 520 c 2
 1030 520 l 2
 1053.75868088 520 1060 515.409179688 1060 490 c 2
 1060 125 l 2
 1060 91.5695239004 1055.08253724 85 1090 85 c 2
 1120 85 l 2
 1144.46065916 85 1150 89.0928574872 1150 63 c 2
 1150 31 l 2
 1150 2.09650268256 1151.84220601 0 1122 0 c 2
 842 0 l 2
 811.773891372 0 810 -1.51772735877 810 29 c 2
 810 63 l 2
 810 87.1176737999 812.575701997 85 836 85 c 2
 866 85 l 2
 893.025428073 85 890 88.8452490466 890 115 c 2
 890 405 l 2
 890 439.814558389 883.546088445 435 850 435 c 2
 712 435 l 2
 681.202016793 435 680 436.027595351 680 405 c 2
 680 121 l 2
 680 88.9542829942 676.754854606 85 710 85 c 2
 754 85 l 2
 783.075317847 85 790 90.0409994763 790 59 c 2
 790 29 l 2
 790 -3.54893082962 785.514506647 0 754 0 c 2
320 520 m 2
 482 520 l 2
 502.218277645 520 510 515.182481812 510 537 c 0
 510 546.305187093 513.116955861 553 503 553 c 4
 497.112957114 553 491.442296791 553.162286923 486.000004212 553.50312637 c 0
 434.126230575 556.751872752 403 576.222376754 403 626 c 0
 403 673 433 678 433 689 c 0
 433 697 411 705 389 705 c 0
 309 705 280 637 280 550 c 0
 280 515.185441611 286.453911555 520 320 520 c 2
EndSplineSet
LCarets2: 2 0 0
Ligature2: "Not your mama's contextual ligatures" f f i
EndChar

StartChar: uniFB04
Encoding: 64260 64260 546
Width: 1185
VWidth: 1155
Flags: HMW
LayerCount: 2
Fore
SplineSet
318 520 m 2
 486 520 l 2
 503.666145618 520 510 515.974154232 510 535 c 0
 510 558.949399415 500.181434858 552.135932804 480.000004069 553.960438967 c 0
 431.735385677 558.32381115 403 578.172309916 403 626 c 0
 403 673 433 678 433 689 c 0
 433 697 411 705 389 705 c 0
 309 705 280 637 280 550 c 0
 280 516.006630667 285.130450978 520 318 520 c 2
1152 0 m 6
 872 0 l 2
 841.279032605 0 830 -7.10676633348 830 26 c 2
 830 56 l 2
 830 80.406810031 826.527312806 85 852 85 c 2
 896 85 l 2
 926.549809122 85 920 95.5002788256 920 124 c 2
 920 505 l 2
 920 540.036605273 911.535012644 529.861248667 884.000003918 536.084071786 c 0
 839.363368619 546.171807327 813 580.188834367 813 626 c 0
 813 673 843 678 843 689 c 0
 843 697 811 705 789 705 c 0
 709 705 680 637 680 550 c 0
 680 514.140635581 688.217985545 520 722 520 c 2
 770 520 l 2
 791.253719159 520 820 529.005719219 820 505 c 2
 820 477 l 2
 820 448.163204044 827.684678198 435 796 435 c 2
 714 435 l 2
 679.07912381 435 680 433.913467517 680 399 c 2
 680 112 l 2
 680 85.63162747 679.479961256 85 706 85 c 2
 730 85 l 2
 757.409613642 85 780 94.8161771212 780 64 c 2
 780 40 l 2
 780 1.2225746708 781.033775573 0 742 0 c 2
 450 0 l 2
 419.069098751 0 420 1.09010307047 420 32 c 2
 420 64 l 2
 420 85.4494493775 420.540708312 85 442 85 c 2
 480 85 l 2
 512.682479669 85 510 88.2316815603 510 120 c 2
 510 412 l 2
 510 437.576051197 506.794341201 435 482 435 c 2
 320 435 l 2
 286.5695239 435 280 439.91746276 280 405 c 2
 280 124 l 2
 280 92.6182993763 274.48581366 85 308 85 c 2
 344 85 l 2
 365.47220486 85 380 92.0376296747 380 68 c 2
 380 40 l 2
 380 8.32175882529 385.878754869 0 352 0 c 2
 46 0 l 2
 19.06009288 0 20 1.09475298316 20 28 c 2
 20 62 l 2
 20 85.4436362367 20.5397622739 85 44 85 c 2
 82 85 l 2
 115.394364974 85 110 92.5306391393 110 124 c 2
 110 407 l 2
 110 435.935557686 108.90773507 435 80 435 c 2
 46 435 l 2
 15.0710640514 435 20 441.843754249 20 471 c 2
 20 495 l 2
 20 522.608996835 23.2104131733 520 50 520 c 2
 72 520 l 2
 104.097553707 520 110 515.514094005 110 549 c 2
 110 572 l 2
 110 703 217 780 367 780 c 0
 436.438934855 780 497.729672953 766.232357204 539.999996981 740.335350934 c 0
 581.733649866 714.767137412 572.57757484 724.071170115 615.999995118 746.799474333 c 0
 657.439895321 768.490081456 709.006139236 780 767 780 c 0
 825.111541079 780 879.4842515 770.357752513 921.999996807 752.033466991 c 0
 963.057111152 734.33785139 962.338835775 724.905197515 1002 748.235294118 c 2
 1048 775.294117647 l 2
 1082.08671583 795.34512696 1090 791.796790423 1090 751 c 2
 1090 128 l 2
 1090 94.0174399458 1083.64996836 85 1120 85 c 2
 1156 85 l 2
 1181.68380081 85 1180 83.021111866 1180 58 c 2
 1180 34 l 2
 1180 3.94397742816 1183.20359876 0 1152 0 c 6
EndSplineSet
LCarets2: 2 0 0
Ligature2: "Not your mama's contextual ligatures" f f l
EndChar

StartChar: uniFFFD
Encoding: 65533 65533 547
Width: 830
Flags: HMW
LayerCount: 2
Fore
SplineSet
465 645 m 2
 357 645 l 2
 322.754932248 645 325 642.361482488 325 609 c 2
 325 471 l 2
 325 430.67572681 324.476976748 430 365 430 c 2
 465 430 l 2
 521 430 575 466 575 545 c 0
 575 624 521 645 465 645 c 2
789 0 m 2
 705 0 l 2
 422.03125 0 626.256835938 320 390 320 c 2
 349 320 l 2
 323.316199186 320 325 310.021484375 325 285 c 2
 325 130 l 2
 325 98.3796208028 335.468726386 105 365 105 c 2
 403 105 l 2
 430.415072115 105 435 108.556777119 435 80 c 2
 435 30 l 2
 435 -5.85936441856 426.782014455 0 393 0 c 2
 67 0 l 2
 29.5998445592 0 30 0.536027595198 30 38 c 2
 30 70 l 2
 30 104.881868512 30.0002989248 105 65 105 c 2
 117 105 l 2
 143.005388071 105 140 108.846725848 140 134 c 2
 140 613 l 2
 140 645.41605574 139.463021481 645 107 645 c 2
 61 645 l 2
 25.5677600442 645 30 650.781535103 30 685 c 2
 30 723 l 2
 30 759.023806464 46.1026209651 750 79 750 c 2
 465 750 l 2
 686 750 765 665 765 545 c 0
 765 472.331201024 718.8984375 410.400390625 610 382.885742188 c 4
 566.721679688 371.951171875 570.717773438 369.274414062 607.305664062 352 c 4
 758.547851562 280.595703125 678.113643536 104.999999951 761 105 c 2
 793 105 l 2
 822.069518373 105 820 99.037109375 820 75 c 2
 820 31 l 2
 820 3.5556640625 825.502720357 -4.47029396454e-15 789 0 c 2
EndSplineSet
EndChar
